<?xml version="1.0" encoding="utf-8"?>
<!-- Generator: Adobe Illustrator 23.0.2, SVG Export Plug-In . SVG Version: 6.00 Build 0)  -->
<svg version="1.1" id="Слой_1" xmlns="http://www.w3.org/2000/svg" xmlns:xlink="http://www.w3.org/1999/xlink" x="0px" y="0px"
	 viewBox="0 0 211.6 327.9" style="enable-background:new 0 0 211.6 327.9;" xml:space="preserve">
<style type="text/css">
	.st0{display:none;}
	.st1{display:inline;fill:#FFFFFF;stroke:#3C3C3B;stroke-width:23;stroke-miterlimit:10;}
	.st2{display:inline;fill:#3C3C3B;}
	.st3{display:inline;}
	.st4{fill:#662483;}
	.st5{display:inline;fill:#FFFFFF;stroke:#662483;stroke-width:23;stroke-miterlimit:10;}
	.st6{display:inline;fill:#662483;stroke:#662483;stroke-miterlimit:10;}
	.st7{display:inline;fill:#662483;}
	.st8{display:inline;fill:#0071BC;}
	.st9{display:inline;fill:#FFFFFF;}
	.st10{fill:#0071BC;}
	.st11{fill:#FFFFFF;}
	.st12{fill:#006837;}
</style>
<g id="Крепость" class="st0">
	<path class="st1" d="M200.1,162.8c-1.4,30.3-61.4,103.1-94.3,103.1c-34.9,0-94.3-72.9-94.3-103.1v-115c0-7.1,3.7-13.8,9.8-17.5
		c39.5-23.9,133.5-26,170.2-0.5c5.5,3.8,8.7,10.1,8.7,16.8V162.8z"/>
	<path class="st2" d="M207.3,156.8c-0.5-18.1-0.1-36.3-0.1-54.5c0,0,0,0-0.1,0c0-21.2,0.1-42.3-0.2-63.5c0-2.8-1.5-6.7-3.6-8
		c-8.6-5.6-17.4-11.3-26.8-15.3C144.2,1.7,110.3-0.9,75.7,4.3c-23,3.4-44.6,10.3-63.9,23.7C7.1,31.3,4.9,35,4.9,40.9
		c0.2,37,0.1,73.9,0.1,110.9c0,4.7-0.1,9.4,0.5,14c2.3,19.4,11.3,35.6,24.5,49.7c20.4,21.7,44.9,37.5,71.8,49.7
		c2.6,1.2,6.8,1,9.4-0.3c8.8-4.2,17.5-8.9,25.9-13.8c20.8-12.1,39.3-26.8,53.9-46.2C201.8,190.7,207.8,175,207.3,156.8z
		 M119.4,214.9c0,1.8,0,3.6,0,5.9c-8.8,0-17.3,0-26.4,0c0-3.7,0-7.3,0-11c0-10.2-0.1-20.3,0-30.5c0.1-8,5.3-13.6,12.7-14
		c7.1-0.4,13.3,5.3,13.5,13.1C119.6,190.6,119.4,202.7,119.4,214.9z M192.9,165c-0.1,12.2-6.1,22.8-13.7,32.1
		c-6.1,7.4-12.8,14.3-19.2,21.4c-0.5-0.3-1-0.5-1.6-0.8c-1.1-9.5-2.3-19.1-3.4-28.6c-2.2-18.5-4.5-37-6.6-55.5
		c0-0.2-0.1-0.4-0.1-0.5h10.9V75.3h-21.5V96h-21.6V75.3H95.7v20.8H74.1V75.3H52.9v57.8h10.4c-0.1,0.4-0.2,0.9-0.3,1.4
		c-1.7,15.2-3.3,30.4-5.1,45.6c-1.3,11.6-2.7,23.1-4.1,34.7c-0.1,0.8-0.5,1.5-1,2.8c-18.2-16.1-33.4-33.4-33.6-59.1
		c-0.3-37.7-0.1-75.3-0.2-113c0-4.6,2.5-7.3,6.2-9.5c16-9.4,33.3-15,51.5-17.8c31-4.7,61.4-2.8,90.8,8.7c7.5,3,14.7,7,21.7,11.1
		c1.9,1.1,3.6,4.2,3.6,6.4C193.1,84.7,193.3,124.9,192.9,165z"/>
	<polygon class="st2" points="105.8,321.6 59.6,254.3 105.8,270.8 152.1,254.3 	"/>
</g>
<g id="Щит_Спираль" class="st0">
	<g class="st3">
		<path class="st4" d="M29.2,97.1c4.8-10.5,12.3-20,21.6-27.5s20.5-12.8,32.5-15.5c6-1.3,12.2-2,18.3-2c6.2,0,12.4,0.8,18.5,2.2
			c6.1,1.4,12,3.6,17.7,6.4c5.7,2.8,11.2,6.3,16.1,10.6c9.8,8.4,17.4,19.7,21.6,32.1c4.3,12.4,5.2,26,2.6,39.1
			c-1.3,6.5-3.4,12.9-6.4,18.9c-1.5,2.9-3.2,5.9-5.1,8.8c-2,2.8-4.1,5.5-6.4,8c-9.4,10.1-22.1,16.9-35.6,19.6
			c-6.8,1.4-13.8,1.7-20.6,0.9c-3.4-0.4-6.8-1.1-10.2-2c-3.3-0.9-6.6-2.1-9.8-3.5c-3.2-1.4-6.2-3.1-9.2-5c-3-1.9-5.8-4.2-8.4-6.7
			c-5.2-5-9.4-10.9-12.4-17.3c-3-6.4-4.9-13.4-5.5-20.6c-0.6-7.1,0.2-14.3,2.2-21.2c1-3.4,2.3-6.7,3.9-9.9c1.6-3.1,3.5-6.3,5.8-9.2
			c4.5-5.8,10.3-10.5,16.8-13.8s13.7-5.2,20.9-5.6c7.3-0.4,14.6,0.9,21.2,3.6c0.8,0.3,1.7,0.7,2.5,1.1l2.4,1.2l2.3,1.3
			c0.8,0.5,1.6,1,2.3,1.5c3,2.1,5.9,4.6,8.3,7.4c4.9,5.6,8.2,12.4,9.7,19.6c1.5,7.1,1.2,14.6-0.9,21.6c-1.1,3.4-2.6,6.8-4.5,9.8
			c-1,1.4-2.2,2.8-3.4,4.1c-1.2,1.3-2.6,2.5-4,3.6c-2.8,2.3-6,4.1-9.4,5.3c-3.4,1.2-7,1.7-10.4,1.5c-3.4-0.2-6.7-1.1-9.6-2.5
			c-2.9-1.4-5.4-3.3-7.4-5.6c5.9,1.4,11.5,1.2,16.1-0.5c4.6-1.7,8-4.8,10.5-8.4c1.2-1.9,2.2-3.9,3.1-5.9c1-2,1.7-4,2.2-6.1
			c0.9-4.2,0.9-8.6-0.3-12.6c-1.1-4.1-3.3-7.8-6.1-10.8c-1.4-1.5-3-2.8-4.8-3.9c-0.4-0.3-0.9-0.5-1.3-0.8l-1.5-0.7l-1.5-0.7
			c-0.5-0.2-1-0.4-1.5-0.6c-4.1-1.4-8.4-1.9-12.7-1.6c-4.3,0.3-8.4,1.6-12.1,3.7c-3.7,2-6.9,4.9-9.4,8.2c-1.3,1.7-2.3,3.5-3.3,5.5
			c-1,2-1.7,4.1-2.3,6.2c-2.3,8.5-1.5,17.8,2.3,25.7c1.9,4,4.5,7.5,7.7,10.6c3.1,3.1,6.8,5.4,11,7.4c8.3,3.9,17.9,5,27,3.4
			c9.1-1.6,17.7-6.1,24.3-12.6c1.7-1.6,3.2-3.4,4.6-5.3s2.6-3.9,3.8-6c2.3-4.3,4.1-8.8,5.3-13.6c1.1-4.7,1.7-9.6,1.6-14.6
			c-0.1-4.9-0.8-9.8-2.1-14.6c-1.4-4.8-3.3-9.4-5.8-13.7c-1.2-2.2-2.7-4.2-4.2-6.3c-1.6-2-3.2-3.9-5-5.7c-3.6-3.6-7.6-6.7-12.1-9.4
			c-4.5-2.7-9.3-4.9-14.3-6.6c-5-1.7-10.2-2.8-15.5-3.4s-10.7-0.6-16.1,0C74.2,65,63.6,68.4,54,74.2C44.4,79.8,35.9,87.7,29.2,97.1z
			"/>
	</g>
	<path class="st5" d="M200.1,162.8c-1.4,30.3-61.4,103.1-94.3,103.1c-34.9,0-94.3-72.9-94.3-103.1v-115c0-7.1,3.7-13.8,9.8-17.5
		c39.5-23.9,133.5-26,170.2-0.5c5.5,3.8,8.7,10.1,8.7,16.8V162.8z"/>
	<polygon class="st6" points="105.8,321.6 59.6,254.3 105.8,270.8 152.1,254.3 	"/>
</g>
<g id="Спираль" class="st0">
	<polygon class="st7" points="105.8,321.6 59.6,254.3 105.8,270.8 152.1,254.3 	"/>
	<path class="st7" d="M4.8,117.6c6.5-14,16.5-26.8,28.9-36.8S61.3,63.7,77.2,60c8-1.8,16.3-2.7,24.5-2.6c8.3,0.1,16.6,1,24.8,2.9
		c8.1,1.9,16.1,4.8,23.7,8.5c7.6,3.7,15,8.4,21.5,14.1c13.2,11.3,23.2,26.3,28.9,42.9c5.7,16.6,7,34.8,3.5,52.3
		c-1.7,8.7-4.6,17.2-8.5,25.2c-2,3.9-4.2,7.9-6.9,11.7c-2.6,3.8-5.5,7.4-8.6,10.7c-12.6,13.5-29.6,22.6-47.6,26.3
		c-9,1.8-18.4,2.3-27.6,1.2c-4.6-0.6-9.2-1.4-13.6-2.6c-4.5-1.3-8.8-2.8-13.1-4.7c-4.2-1.9-8.2-4.1-12.3-6.7
		c-4-2.6-7.7-5.6-11.2-8.9c-6.9-6.6-12.5-14.6-16.6-23.2c-4.1-8.6-6.6-18-7.3-27.5c-0.8-9.5,0.3-19.1,3-28.3c1.3-4.6,3.1-9,5.3-13.2
		c2.1-4.2,4.7-8.4,7.7-12.2c6-7.7,13.8-14.1,22.5-18.5s18.3-7,28-7.4c9.7-0.5,19.5,1.2,28.4,4.8c1.1,0.4,2.2,1,3.3,1.4l3.2,1.6
		l3.1,1.8c1,0.7,2.1,1.3,3.1,2c4.1,2.8,7.8,6.1,11.1,9.9c6.5,7.5,10.9,16.6,12.9,26.2c2,9.6,1.6,19.6-1.3,28.8
		c-1.5,4.6-3.5,9-6,13.1c-1.4,1.9-2.9,3.8-4.5,5.6c-1.6,1.7-3.4,3.4-5.3,4.9c-3.8,3-8,5.4-12.6,7c-4.5,1.6-9.3,2.3-13.9,2
		c-4.6-0.2-9-1.5-12.9-3.3c-3.9-1.9-7.2-4.5-9.9-7.4c7.8,1.9,15.4,1.6,21.5-0.7c6.1-2.3,10.7-6.4,14-11.3c1.6-2.5,3-5.1,4.1-7.9
		c1.3-2.6,2.3-5.4,3-8.1c1.3-5.6,1.2-11.4-0.4-16.9c-1.5-5.5-4.4-10.4-8.2-14.4c-1.9-2-4.1-3.7-6.4-5.2c-0.6-0.4-1.2-0.7-1.8-1
		l-1.9-1l-2-0.9c-0.7-0.3-1.3-0.5-2-0.8c-5.5-1.9-11.3-2.6-16.9-2.1c-5.7,0.5-11.3,2.2-16.2,4.9c-5,2.7-9.2,6.5-12.6,11
		c-1.7,2.2-3.1,4.6-4.4,7.4c-1.3,2.7-2.3,5.4-3.1,8.3c-3,11.3-2,23.8,3.1,34.4c2.5,5.3,6,10.1,10.2,14.1c4.2,4.1,9.1,7.3,14.8,9.9
		c11.2,5.1,23.9,6.6,36.1,4.5c12.2-2.1,23.7-8.1,32.5-16.9c2.2-2.2,4.2-4.6,6.1-7.1c1.9-2.5,3.5-5.2,5.1-8.1c3-5.8,5.5-11.8,7-18.1
		c1.5-6.3,2.3-12.9,2.1-19.5c-0.1-6.6-1-13.2-2.8-19.6c-1.8-6.4-4.4-12.6-7.8-18.4c-1.6-2.9-3.6-5.7-5.6-8.4
		c-2.1-2.6-4.2-5.2-6.7-7.6c-4.8-4.8-10.1-9-16.1-12.5c-6-3.6-12.4-6.5-19.1-8.8c-6.7-2.3-13.7-3.8-20.7-4.5s-14.3-0.8-21.5,0
		C65.1,74.6,50.8,79.2,38,86.9C25.1,94.4,13.8,104.9,4.8,117.6z"/>
</g>
<g class="st0">
	<polygon class="st8" points="105.8,321.6 59.6,254.3 105.8,270.8 152.1,254.3 	"/>
	<path class="st9" d="M93.2,217.1c0-5.2,0-10.4,0-15.6c0-3.6,1.6-5.2,5.2-5.2c5.2,0,10.4,0,15.6,0c3.4,0,5.1,1.5,5.1,4.9
		c0.1,10.8,0,21.7,0,32.5c0,1.3-0.5,1.6-1.7,1.6c-7.5,0-15,0-22.5,0c-1.5,0-1.8-0.6-1.8-1.9C93.3,228,93.2,222.5,93.2,217.1z"/>
	<path class="st9" d="M64,222.3c-2.6,0-5.3,0-7.9,0c-1.3,0-1.8-0.3-1.8-1.7c0.1-5.2-0.1-10.4,0.1-15.6c0.1-5.2,5.9-9.3,11-8.5
		c5.2,0.7,8.6,5.3,8.5,10.6c-0.1,4.5-0.1,8.9,0,13.4c0,1.4-0.5,1.9-1.9,1.9C69.2,222.2,66.6,222.3,64,222.3z"/>
	<path class="st9" d="M148.4,222.3c-2.7,0-5.4,0-8.1,0c-1.1,0-1.6-0.4-1.6-1.5c0-5.3-0.1-10.7,0.1-16c0.2-5,6-9.3,11-8.2
		c5.8,1.3,8.4,4.5,8.4,10.3c0,4.3-0.1,8.7,0,13c0,1.8-0.4,2.6-2.4,2.4C153.4,222.2,150.9,222.3,148.4,222.3
		C148.4,222.3,148.4,222.3,148.4,222.3z"/>
	<path class="st9" d="M105.7,150.8c-4,0.1-9.4-4.3-9.2-9.9c0.2-5.1,4.5-9.6,9.5-9.5c6.1,0.1,10,4,10,9.5
		C115.8,146.6,112.5,150.6,105.7,150.8z"/>
	<path class="st8" d="M206.9,157.5c-19.2-12.6-38.4-25.1-57.7-37.6c-1.9-1.2-2.7-2.5-2.7-4.8c0.2-8.2,0-16.5,0.1-24.7
		c0-3.2-1-5.8-3.3-8.1c-8.8-8.5-28.9-28.7-37.5-37.4L95,56.4c-8.3,8.4-16.6,16.8-25,25c-2.8,2.7-4.4,5.6-4.2,9.7
		c0.3,8.1,0,16.1,0.1,24.2c0,2-0.6,3.2-2.3,4.3c-9.7,6.2-19.3,12.6-28.9,18.9c-10.1,6.6-20.1,13.1-30.2,19.7c-3.1,2-4,4.7-2.6,7.5
		c1.2,2.2,2.5,4.4,3.9,6.5c1.8,2.6,4.2,3.1,7,1.6c0.7-0.4,1.4-0.9,2.2-1.3c0.6-0.3,1.3-0.6,2-0.9c0.1,0.7,0.4,1.4,0.4,2.1
		c0,15.6,0,31.1,0.1,46.7c0,2.1-0.7,2.7-2.7,2.7c-3.3,0-5.2,2.2-5.4,5.5c0,1.1,0.1,2.2,0,3.3c-0.6,4.9,2.4,7.4,7.3,7.4
		c29.9-0.2,59.7-0.1,89.6-0.1c17.6,0,35.2,0,52.7,0c12.6,0,25.2,0,37.8,0c3.5,0,5.8-1.5,6.1-4.4c0.3-2.2,0.3-4.6,0-6.8
		c-0.4-3.2-1.8-4.7-5.1-4.8c-2.7-0.1-2.8-1.4-2.8-3.5c0.1-14.7,0-29.4,0-44.2c0-1.3,0.2-2.6,0.4-3.9c1.2,0.6,2.4,1.1,3.5,1.7
		c3.5,2.1,6.1,1.5,8.3-2c0.7-1.1,1.4-2.3,2.1-3.5C212.3,162.9,211.8,160.7,206.9,157.5z M65.9,204.6c0,1.8-0.6,2.4-2.3,2.3
		c-3.3-0.1-6.6,0-9.8,0c-3.3,0-6.6-0.1-9.8,0c-1.6,0-2.3-0.4-2.3-2.1c0.1-6.5-0.1-12.9,0.1-19.4c0.2-6.4,7.3-11.5,13.6-10.6
		c6.5,0.9,10.7,6.5,10.5,13.2C65.8,193.6,65.8,199.1,65.9,204.6z M105.8,93.9c7.6,0.1,12.4,5,12.4,11.8c-0.1,7.1-4.2,12.1-12.6,12.4
		c-5,0.2-11.7-5.3-11.5-12.3C94.3,99.5,99.6,93.8,105.8,93.9z M120.3,223.1c-9.3,0-18.7-0.1-28,0c-1.9,0-2.2-0.8-2.2-2.4
		c0.1-6.7,0-13.5,0-20.2c0-6.5,0-12.9,0-19.4c0-4.5,2-6.4,6.5-6.4c6.5,0,12.9,0,19.4,0c4.2,0,6.3,1.9,6.3,6.1
		c0.1,13.5,0,26.9,0.1,40.4C122.4,222.6,121.8,223.1,120.3,223.1z M167.9,207c-3.1-0.2-6.2,0-9.3,0c0,0,0,0,0,0c-3.4,0-6.7,0-10.1,0
		c-1.4,0-2-0.5-1.9-1.9c0-6.6-0.1-13.3,0.1-19.9c0.2-6.3,7.5-11.5,13.7-10.2c7.1,1.6,10.4,5.6,10.5,12.9c0,5.4-0.1,10.8,0.1,16.1
		C170.9,206.2,170.4,207.1,167.9,207z"/>
</g>
<g class="st0">
	<polygon class="st8" points="105.8,321.6 59.6,254.3 105.8,270.8 152.1,254.3 	"/>
	<path class="st10" d="M116.8,15.5c-2.3-2.3-4.5-4.5-6.5-6.5c-2.4-2.4-6.3-2.4-8.7-0.1l-6.9,6.6c-7.6,7.8-15.3,15.5-22.9,23.2
		c-4,4-8,8-11.9,11.9c-1.5,1.5-2.1,3.4-1.3,5.4c0.7,2,2.4,2.8,4.5,2.8c1.4,0,2.8,0.2,4.2,0.3c0.1,0.4,0.2,0.7,0.2,1
		c0,11.2,0,22.4,0,33.5c0,0.7-0.5,1.7-1.1,2.2c-8.9,7.8-17.8,15.5-26.7,23.2c-7.1,6.2-14.2,12.2-21.2,18.5c-4.5,4-6.3,9.1-4.6,15
		c1.6,5.5,5.4,8.7,10.9,9.8c2.2,0.4,4.4,0.5,6.8,0.8c0,0.8,0,1.7,0,2.6c0,24.5,0,49,0,73.5c0,3,0.8,5.4,3.7,6.8
		c16.5,0,32.9,0,49.4,0c0-11,0.1-22,0.2-32.9c0-5.8-0.1-11.6,0.4-17.4c0.6-8.1,5.2-13.8,12.5-17c7.2-3.1,14.3-2.3,20.8,2.3
		c6.7,4.7,9,11.5,9,19.3c0,14.2,0,28.4-0.1,42.6c0,1.1,0.1,2.1,0.2,3.2c16.5,0,32.9,0,49.4,0c2.3-1.2,3.6-3,3.6-5.8
		c0-14.5,0-29,0-43.4c0-11.2,0-22.5,0-34c1.5,0,2.8,0,4.1,0c11.3-0.2,18-12.1,12-21.7c-1.6-2.6-4.2-4.6-6.5-6.7
		c-14.6-12.8-29.2-25.5-43.8-38.3c-0.9-0.8-1.6-2.3-1.6-3.6c-0.1-9.5-0.1-19-0.1-28.4c0-1.7,0-3.3,0-5.3c1.3,0,2.2,0,3.2,0
		c2.4,0,4.8-0.3,5.7-2.9c0.9-2.5-0.4-4.3-2.2-6.1 M118.3,83.1c0,3,0,6.1,0,9.1c0,3.5-1,4.6-4.3,4.6c-5.4,0-10.7,0-16.1,0
		c-2.5,0-4-1.1-4-3.6c0-7.4-0.2-14.8,0.3-22.2c0.3-5.7,5.8-10,11.7-10.1c5.8-0.1,11.1,4,11.8,9.6c0.6,4.1,0.5,8.4,0.8,12.5
		C118.5,83.1,118.4,83.1,118.3,83.1z"/>
</g>
<g>
	<path class="st11" d="M112.4,189.9c-2.4,0-4.7,1.8-4.7,4.2c-0.1,5.5-0.1,11.1,0,16.8c0,0.5,0.4,0.9,0.9,0.9h7.9
		c0.5,0,0.9-0.4,0.9-0.9c0-5.6,0.1-11.1,0-16.6C117.1,191.7,114.9,189.8,112.4,189.9z"/>
	<path class="st11" d="M133.8,189.8c-2.9,0-4.9,2.1-4.9,5.4c0,4.9,0,9.9,0,14.8c0,0.3,0,0.6,0.1,0.9c0.1,0.4,0.4,0.8,0.9,0.8h7.9
		c0.5,0,0.9-0.4,0.9-0.9c0-5.3,0-10.4,0-15.5C138.6,192,136.7,189.9,133.8,189.8z"/>
	<path class="st11" d="M145.7,30c-0.3-0.8-1.4-0.8-1.7,0c-5,12.9-9.8,25.4-14.8,38.1c-0.2,0.6,0.2,1.2,0.8,1.2h3.4
		c0.5,0,0.9,0.4,0.9,0.9v64.2c0,0.5,0.4,0.9,0.9,0.9c1.1,0,2.1,0.1,3.1,0c1.2-0.1,1.9,0.3,2.6,1.3c5.4,7.1,10.8,14.1,16.2,21.1
		c0,0.1,0.1,0.1,0.1,0.2c0.5,0.7,1.6,0.3,1.6-0.5v-82c0-0.5,0.4-0.8,0.8-0.9c0.3,0,0.7-0.1,1-0.1c0.6,0,1-0.6,0.8-1.2
		C156.2,58.8,151,44.6,145.7,30z"/>
	<path class="st11" d="M83.3,172.4c-7.7-8.5-15.4-17.1-23.1-25.6c-0.2-0.2-0.4-0.4-0.6-0.5c-0.4-0.3-1-0.3-1.3,0.1
		c-0.1,0.1-0.2,0.2-0.3,0.4c-6.5,8.7-13.1,17.3-19.6,26c-0.6,0.8-0.9,2-0.9,3.1c-0.1,15.7-0.1,31.4-0.1,47.2c0,3.4,0,6.7,0,10.3
		c0,0.5,0.5,1,1,0.9c4.8-0.8,9.3-1.5,13.9-2.3c0.4-0.1,0.7-0.4,0.7-0.9c0-7.3,0-14.3,0-21.4c0-2.4,0-4.8,0-7.2c0-4.5,3-7.5,7.5-7.6
		c3.9-0.1,7.2,3.3,7.2,7.6c0,8.3,0,16.6,0,25c0,0.5,0,1,0,1.5c0,0.5,0.5,0.9,1,0.9c5-0.5,9.9-1,14.8-1.5c0.4,0,0.7-0.3,0.8-0.7
		c0-0.1,0-0.2,0-0.3c0-17.5,0-35,0-52.5C84.3,173.9,83.8,173,83.3,172.4z"/>
	<polygon class="st12" points="105.8,321.6 59.6,254.3 105.8,270.8 152.1,254.3 	"/>
</g>
<g>
	<path class="st12" d="M30.5,253.2c-1.3,0-2.4-1.1-2.4-2.4v-15.7c0-0.2,0-0.4,0.1-0.6c0-0.2,0.1-0.4,0.1-0.7
		c-0.1-17.4-0.1-35.6,0-55.9c0-0.8-0.1-0.9-0.6-1c-1.2-0.4-2.3-0.8-3.5-1.3l-0.6-0.3c-0.6-0.3-1.1-0.8-1.4-1.5
		c-0.2-0.7-0.1-1.4,0.2-2c0.2-0.3,0.4-0.6,0.5-0.8c2.3-3,4.5-6,6.7-9.1c6.3-8.5,12.8-17.3,19.5-25.8c0.4-0.5,0.7-0.9,0.9-1.4
		c0.4-0.8,1.2-1.2,2.1-1.2h72.8c0-0.1,0-0.1,0-0.2l0.1-14.9c0.1-13,0.1-25.9,0.2-38.9c0-0.7,0-0.8-0.7-1c-1.6-0.5-3.1-1.1-4.7-1.8
		l-1.2-0.5c-1.2-0.5-1.8-1.9-1.3-3.1l1.5-3.9c1.2-3.1,2.4-6.2,3.6-9.2l4.7-12c4.8-12.3,9.5-24.6,14.3-37c0.5-1.3,0.7-2.6,0.8-3.9
		l1.5-0.1l-1.5,0c0-1.3,1.1-2.4,2.4-2.4l18.7,0c3.5,0,7.1,0,10.6,0c1.4,0,3,0.3,3.7,2.6c5.3,16.5,10.6,32.9,16,49.3l5,15.4
		c0.1,0.3,0.2,0.5,0.2,0.8c0.2,0.7,0,1.5-0.4,2.1c-0.5,0.6-1.1,0.9-1.9,0.9h-7.6v67.7c0,0.1,0.1,0.3,0.1,0.4v101.9
		c0,0.4-0.2,0.8-0.5,1.1c-0.3,0.3-0.7,0.4-1,0.4c0,0,0,0-0.1,0c-14.1-0.7-28.9-1.1-43.8-1.1c-8.9,0-18.2,0.1-27.5,0.4
		c-24.3,0.7-46.4,2.1-67.6,4.4c-6.1,0.7-12,1.4-17.5,2.1C30.7,253.2,30.6,253.2,30.5,253.2z M55.3,152.8
		c-5.1,6.8-10.5,13.9-15.6,20.8c-0.4,0.5-0.6,1.4-0.6,2.2c-0.1,13.4-0.1,27-0.1,40.2l0,7c0,2.5,0,5.1,0,7.7l0,1.9l12.7-2.1l0-20.9
		c0,0,0-5.9,0-7.2c0-5.3,3.6-9,9-9.1l0.2,0c4.7,0,8.6,4.1,8.6,9c0,5.9,0,11.8,0,17.7l0,8.1l13.6-1.4l0-5.8c0-15.1,0-30.8,0-46.2
		c0-0.3-0.3-0.9-0.7-1.4c-7-7.7-14.1-15.6-21-23.2l-2.1-2.4L55.3,152.8z M137.1,210.3l0-3.5c0-3.8,0-7.6,0-11.4c0-1.2-0.3-4-3.3-4
		l0-1.5v1.5c-2.1,0-3.3,1.5-3.4,3.9c0,4.3,0,8.7,0,13l0,1.8c0,0.1,0,0.1,0,0.2H137.1z M115.7,210.2c0-1.2,0-2.5,0-3.7
		c0-4.2,0-8.2-0.1-12.2c0-1.8-1.7-2.9-3.3-2.9v-1.5l0,1.5c-1.5,0-3.2,1.1-3.2,2.8c-0.1,4.1-0.1,8.2-0.1,12.5c0,1.2,0,2.4,0,3.6
		H115.7z M138.8,133.7c1.7,0,2.7,1,3.4,1.9c4.3,5.7,8.8,11.5,13.1,17.1l2.2,2.8V75.3c0-1.2,1-2.3,2.2-2.4l0.2,0L144.8,32L131,67.8
		h2.5c1.3,0,2.4,1.1,2.4,2.4v63.6c0.4,0,0.7,0,1,0c0.5,0,0.9,0,1.3-0.1C138.4,133.7,138.6,133.7,138.8,133.7z"/>
	<path class="st11" d="M173.8,6.2c1.2,0,1.8,0.3,2.2,1.6c7,21.6,14,43.2,21,64.7c0.1,0.2,0.1,0.5,0.2,0.7c0.1,0.6-0.3,1.1-0.9,1.1
		h-8.2c-0.5,0-0.9,0.4-0.9,0.9v68.4c0,0.1,0,0.2,0.1,0.3v13.7v68.5v19.8c-14.6-0.7-29.2-1.1-43.9-1.1c-9.2,0-18.3,0.1-27.5,0.4
		c-22.6,0.6-45.2,2-67.8,4.4c-5.9,0.6-11.7,1.3-17.6,2.1c0,0-0.1,0-0.1,0c-0.5,0-0.9-0.4-0.9-0.9v-15.7c0-0.1,0-0.2,0-0.2
		c0.1-0.3,0.1-0.6,0.1-1.1c-0.1-18.6-0.1-37.3,0-55.9c0-1.3-0.3-2.1-1.6-2.5c-1.3-0.4-2.6-1-4-1.5c-0.5-0.2-0.7-0.8-0.4-1.3
		c0.1-0.2,0.3-0.5,0.5-0.7c8.7-11.6,17.2-23.4,26.2-34.8c0.4-0.6,0.8-1.1,1.1-1.6c0.2-0.3,0.4-0.5,0.8-0.5h5.8c8.8,0,17.6,0,26.3,0
		h41.2c0.4,0,0.8-0.3,0.9-0.8c0-0.3,0.1-0.6,0.1-0.9c0.1-17.9,0.1-35.8,0.3-53.8c0-1.4-0.5-2-1.7-2.4c-1.9-0.6-3.8-1.4-5.8-2.2
		c-0.5-0.2-0.7-0.7-0.5-1.1c1.7-4.5,3.4-8.8,5-13.1c6.3-16.3,12.7-32.7,18.9-49c0.5-1.4,0.8-2.9,0.9-4.5c0,0,0-0.1,0-0.1
		c0-0.5,0.4-0.9,0.9-0.9h14.1v0c1.5,0,3.1,0,4.6,0C166.7,6.2,170.2,6.2,173.8,6.2C173.8,6.2,173.8,6.2,173.8,6.2 M130.1,69.3h3.4
		c0.5,0,0.9,0.4,0.9,0.9v64.2c0,0.5,0.4,0.9,0.9,0.9c0.6,0,1.1,0,1.7,0c0.5,0,1,0,1.5-0.1c0.1,0,0.3,0,0.4,0c1,0,1.6,0.5,2.2,1.3
		c5.4,7.1,10.8,14.1,16.2,21.1c0,0.1,0.1,0.1,0.1,0.2c0.2,0.2,0.4,0.3,0.7,0.3c0.5,0,0.9-0.3,0.9-0.9v-82c0-0.5,0.4-0.8,0.8-0.9
		c0.3,0,0.7-0.1,1-0.1c0.6,0,1-0.6,0.8-1.2C156.2,58.8,151,44.6,145.7,30c-0.1-0.4-0.5-0.6-0.8-0.6c-0.3,0-0.7,0.2-0.8,0.6
		c-5,12.9-9.8,25.4-14.8,38.1C129,68.7,129.5,69.3,130.1,69.3 M38.2,234.2c0,0,0.1,0,0.1,0c4.8-0.8,9.3-1.5,13.9-2.3
		c0.4-0.1,0.7-0.4,0.7-0.9c0-7.3,0-14.3,0-21.4c0-2.4,0-4.8,0-7.2c0-4.5,3-7.5,7.5-7.6c0,0,0.1,0,0.1,0c3.8,0,7.1,3.4,7.1,7.6
		c0,8.3,0,16.6,0,25c0,0.5,0,1,0,1.5c0,0.5,0.4,0.9,0.9,0.9c0,0,0.1,0,0.1,0c5-0.5,9.9-1,14.8-1.5c0.4,0,0.7-0.3,0.8-0.7
		c0-0.1,0-0.2,0-0.3c0-17.5,0-35,0-52.5c0-0.8-0.5-1.7-1.1-2.3c-7.7-8.5-15.4-17.1-23.1-25.6c-0.2-0.2-0.4-0.4-0.6-0.5
		c-0.2-0.2-0.4-0.2-0.6-0.2c-0.3,0-0.5,0.1-0.7,0.3c-0.1,0.1-0.2,0.2-0.3,0.4c-6.5,8.7-13.1,17.3-19.6,26c-0.6,0.8-0.9,2-0.9,3.1
		c-0.1,15.7-0.1,31.4-0.1,47.2c0,3.4,0,6.7,0,10.3C37.4,233.8,37.8,234.2,38.2,234.2 M129.8,211.8h7.9c0.5,0,0.9-0.4,0.9-0.9
		c0-5.3,0-10.4,0-15.5c0-3.4-1.9-5.5-4.8-5.5c0,0,0,0,0,0c-2.9,0-4.8,2.2-4.9,5.4c0,4.9,0,9.9,0,14.8c0,0.3,0,0.6,0.1,0.9
		C129,211.4,129.4,211.8,129.8,211.8 M108.5,211.7h7.9c0.5,0,0.9-0.4,0.9-0.9c0-5.6,0.1-11.1,0-16.6c-0.1-2.6-2.3-4.4-4.8-4.4
		c0,0,0,0,0,0c-2.4,0-4.7,1.8-4.7,4.2c-0.1,5.5-0.1,11.1,0,16.8C107.6,211.3,108,211.7,108.5,211.7 M173.8,3.2
		C173.8,3.2,173.7,3.2,173.8,3.2c-3.6,0-7.1,0-10.6,0l-4.6,0l-14.1,0c-2.1,0-3.9,1.7-3.9,3.8l0,0.1c0,1.2-0.2,2.3-0.7,3.4
		c-4.7,12.3-9.6,24.8-14.3,36.9L121,59.6c-1.2,3.1-2.4,6.3-3.7,9.5l-1.4,3.6c-0.8,2,0.2,4.2,2.2,5l1.2,0.5c1.5,0.6,2.9,1.2,4.4,1.7
		c-0.1,12.8-0.1,25.8-0.2,38.4c0,4.6,0,9.2-0.1,13.8H84.4H58.1h-5.8c-1.4,0-2.7,0.8-3.4,2c-0.2,0.4-0.5,0.8-0.8,1.2
		c-6.7,8.5-13.3,17.3-19.6,25.8c-2.2,3-4.5,6-6.7,9.1c-0.3,0.4-0.5,0.7-0.6,1c-0.6,1-0.7,2.2-0.4,3.2c0.4,1.1,1.2,1.9,2.2,2.4
		l0.7,0.3c1.1,0.4,2.1,0.8,3.1,1.2c0,20.2,0,38.5,0,55.6c0,0.2,0,0.3,0,0.3c-0.1,0.3-0.1,0.6-0.1,1v15.7c0,2.1,1.7,3.9,3.9,3.9
		c0.2,0,0.3,0,0.5,0c5.6-0.7,11.5-1.4,17.5-2.1c21.2-2.3,43.3-3.7,67.5-4.4c9.3-0.3,18.5-0.4,27.4-0.4c14.9,0,29.6,0.4,43.7,1.1
		c0.1,0,0.1,0,0.2,0c0.8,0,1.5-0.3,2.1-0.8c0.6-0.6,0.9-1.4,0.9-2.2v-19.8v-68.5V144c0-0.2,0-0.4-0.1-0.6v-66h6.1
		c1.2,0,2.3-0.5,3.1-1.5c0.7-1,1-2.2,0.7-3.3c-0.1-0.3-0.2-0.6-0.3-0.9L195,56.5c-5.3-16.3-10.7-33.1-16.1-49.7
		C178.1,4.4,176.4,3.2,173.8,3.2L173.8,3.2z M133.2,66.3l4.3-11.2l7.3-18.9l4.7,12.8l8.4,22.8c-1.2,0.7-1.9,1.9-1.9,3.4V151
		c-4.1-5.4-8.4-10.9-12.5-16.4c-0.8-1.1-2.2-2.5-4.6-2.5c-0.2,0-0.5,0-0.7,0c-0.2,0-0.4,0-0.7,0V70.2c0-2.1-1.7-3.9-3.9-3.9H133.2
		L133.2,66.3z M40.4,230.8l0-0.1c0-2.6,0-5.1,0-7.6l0-7.2c0-13.1,0.1-26.6,0.1-39.9c0-0.6,0.2-1.1,0.3-1.3c5.2-7,10.5-14,15.6-20.9
		l2.7-3.5l1,1.1c6.9,7.6,14,15.4,20.9,23.1c0.2,0.2,0.3,0.4,0.3,0.5c0,15.5,0,31.2,0,46.4l0,4.1l-10.1,1l-0.4,0c0-2.2,0-4.3,0-6.5
		c0-5.8,0-11.8,0-17.7c0-5.8-4.5-10.5-10.1-10.5l-0.2,0c-6.2,0.1-10.5,4.5-10.5,10.6c0,1.3,0,2.7,0,4c0,1,0,2.1,0,3.1l0,15.5l0,4.2
		l-0.1,0L40.4,230.8L40.4,230.8z M131.9,208.8l0-0.2c0-4.3,0-8.8,0-13.3c0-0.9,0.3-2.5,1.9-2.5c0.5,0,1.8,0,1.8,2.5
		c0,3.8,0,7.6,0,11.5l0,1.9H131.9L131.9,208.8z M110.6,208.7c0-0.7,0-1.4,0-2.1c0-4.3,0-8.3,0.1-12.4c0-0.7,0.8-1.3,1.7-1.3
		c0.8,0,1.8,0.6,1.8,1.5c0.1,4,0.1,8,0.1,12.2c0,0.7,0,1.4,0,2.1H110.6L110.6,208.7z"/>
</g>
</svg>
