<?xml version="1.0" encoding="utf-8"?>
<!-- Generator: Adobe Illustrator 23.0.2, SVG Export Plug-In . SVG Version: 6.00 Build 0)  -->
<svg version="1.1" id="Слой_1" xmlns="http://www.w3.org/2000/svg" xmlns:xlink="http://www.w3.org/1999/xlink" x="0px" y="0px"
	 viewBox="0 0 211.6 327.9" style="enable-background:new 0 0 211.6 327.9;" xml:space="preserve">
<style type="text/css">
	.st0{display:none;}
	.st1{display:inline;fill:#FFFFFF;stroke:#3C3C3B;stroke-width:23;stroke-miterlimit:10;}
	.st2{display:inline;fill:#3C3C3B;}
	.st3{display:inline;}
	.st4{fill:#662483;}
	.st5{display:inline;fill:#FFFFFF;stroke:#662483;stroke-width:23;stroke-miterlimit:10;}
	.st6{display:inline;fill:#662483;stroke:#662483;stroke-miterlimit:10;}
	.st7{display:inline;fill:#662483;}
	.st8{display:inline;fill:#0071BC;}
	.st9{display:inline;fill:#FFFFFF;}
	.st10{display:inline;fill:#006837;}
	.st11{fill:#0071BC;}
	.st12{fill:#FFFFFF;}
	.st13{fill:#FFFFFF;stroke:#0071BC;stroke-width:23;stroke-miterlimit:10;}
</style>
<g id="Крепость" class="st0">
	<path class="st1" d="M200.1,162.8c-1.4,30.3-61.4,103.1-94.3,103.1c-34.9,0-94.3-72.9-94.3-103.1v-115c0-7.1,3.7-13.8,9.8-17.5
		c39.5-23.9,133.5-26,170.2-0.5c5.5,3.8,8.7,10.1,8.7,16.8L200.1,162.8L200.1,162.8z"/>
	<path class="st2" d="M207.3,156.8c-0.5-18.1-0.1-36.3-0.1-54.5c0,0,0,0-0.1,0c0-21.2,0.1-42.3-0.2-63.5c0-2.8-1.5-6.7-3.6-8
		c-8.6-5.6-17.4-11.3-26.8-15.3C144.2,1.7,110.3-0.9,75.7,4.3C52.7,7.7,31.1,14.6,11.8,28c-4.7,3.3-6.9,7-6.9,12.9
		C5.1,77.9,5,114.8,5,151.8c0,4.7-0.1,9.4,0.5,14c2.3,19.4,11.3,35.6,24.5,49.7c20.4,21.7,44.9,37.5,71.8,49.7
		c2.6,1.2,6.8,1,9.4-0.3c8.8-4.2,17.5-8.9,25.9-13.8c20.8-12.1,39.3-26.8,53.9-46.2C201.8,190.7,207.8,175,207.3,156.8z
		 M119.4,214.9c0,1.8,0,3.6,0,5.9c-8.8,0-17.3,0-26.4,0c0-3.7,0-7.3,0-11c0-10.2-0.1-20.3,0-30.5c0.1-8,5.3-13.6,12.7-14
		c7.1-0.4,13.3,5.3,13.5,13.1C119.6,190.6,119.4,202.7,119.4,214.9z M192.9,165c-0.1,12.2-6.1,22.8-13.7,32.1
		c-6.1,7.4-12.8,14.3-19.2,21.4c-0.5-0.3-1-0.5-1.6-0.8c-1.1-9.5-2.3-19.1-3.4-28.6c-2.2-18.5-4.5-37-6.6-55.5
		c0-0.2-0.1-0.4-0.1-0.5h10.9V75.3h-21.5V96h-21.6V75.3H95.7v20.8H74.1V75.3H52.9v57.8h10.4c-0.1,0.4-0.2,0.9-0.3,1.4
		c-1.7,15.2-3.3,30.4-5.1,45.6c-1.3,11.6-2.7,23.1-4.1,34.7c-0.1,0.8-0.5,1.5-1,2.8c-18.2-16.1-33.4-33.4-33.6-59.1
		c-0.3-37.7-0.1-75.3-0.2-113c0-4.6,2.5-7.3,6.2-9.5c16-9.4,33.3-15,51.5-17.8c31-4.7,61.4-2.8,90.8,8.7c7.5,3,14.7,7,21.7,11.1
		c1.9,1.1,3.6,4.2,3.6,6.4C193.1,84.7,193.3,124.9,192.9,165z"/>
	<polygon class="st2" points="105.8,321.6 59.6,254.3 105.8,270.8 152.1,254.3 	"/>
</g>
<g id="Щит_Спираль" class="st0">
	<g class="st3">
		<path class="st4" d="M29.2,97.1c4.8-10.5,12.3-20,21.6-27.5s20.5-12.8,32.5-15.5c6-1.3,12.2-2,18.3-2c6.2,0,12.4,0.8,18.5,2.2
			s12,3.6,17.7,6.4c5.7,2.8,11.2,6.3,16.1,10.6c9.8,8.4,17.4,19.7,21.6,32.1c4.3,12.4,5.2,26,2.6,39.1c-1.3,6.5-3.4,12.9-6.4,18.9
			c-1.5,2.9-3.2,5.9-5.1,8.8c-2,2.8-4.1,5.5-6.4,8c-9.4,10.1-22.1,16.9-35.6,19.6c-6.8,1.4-13.8,1.7-20.6,0.9
			c-3.4-0.4-6.8-1.1-10.2-2c-3.3-0.9-6.6-2.1-9.8-3.5c-3.2-1.4-6.2-3.1-9.2-5s-5.8-4.2-8.4-6.7c-5.2-5-9.4-10.9-12.4-17.3
			c-3-6.4-4.9-13.4-5.5-20.6c-0.6-7.1,0.2-14.3,2.2-21.2c1-3.4,2.3-6.7,3.9-9.9c1.6-3.1,3.5-6.3,5.8-9.2
			c4.5-5.8,10.3-10.5,16.8-13.8s13.7-5.2,20.9-5.6c7.3-0.4,14.6,0.9,21.2,3.6c0.8,0.3,1.7,0.7,2.5,1.1l2.4,1.2l2.3,1.3
			c0.8,0.5,1.6,1,2.3,1.5c3,2.1,5.9,4.6,8.3,7.4c4.9,5.6,8.2,12.4,9.7,19.6c1.5,7.1,1.2,14.6-0.9,21.6c-1.1,3.4-2.6,6.8-4.5,9.8
			c-1,1.4-2.2,2.8-3.4,4.1s-2.6,2.5-4,3.6c-2.8,2.3-6,4.1-9.4,5.3s-7,1.7-10.4,1.5s-6.7-1.1-9.6-2.5s-5.4-3.3-7.4-5.6
			c5.9,1.4,11.5,1.2,16.1-0.5s8-4.8,10.5-8.4c1.2-1.9,2.2-3.9,3.1-5.9c1-2,1.7-4,2.2-6.1c0.9-4.2,0.9-8.6-0.3-12.6
			c-1.1-4.1-3.3-7.8-6.1-10.8c-1.4-1.5-3-2.8-4.8-3.9c-0.4-0.3-0.9-0.5-1.3-0.8l-1.5-0.7l-1.5-0.7c-0.5-0.2-1-0.4-1.5-0.6
			c-4.1-1.4-8.4-1.9-12.7-1.6c-4.3,0.3-8.4,1.6-12.1,3.7c-3.7,2-6.9,4.9-9.4,8.2c-1.3,1.7-2.3,3.5-3.3,5.5s-1.7,4.1-2.3,6.2
			c-2.3,8.5-1.5,17.8,2.3,25.7c1.9,4,4.5,7.5,7.7,10.6c3.1,3.1,6.8,5.4,11,7.4c8.3,3.9,17.9,5,27,3.4s17.7-6.1,24.3-12.6
			c1.7-1.6,3.2-3.4,4.6-5.3s2.6-3.9,3.8-6c2.3-4.3,4.1-8.8,5.3-13.6c1.1-4.7,1.7-9.6,1.6-14.6c-0.1-4.9-0.8-9.8-2.1-14.6
			c-1.4-4.8-3.3-9.4-5.8-13.7c-1.2-2.2-2.7-4.2-4.2-6.3c-1.6-2-3.2-3.9-5-5.7c-3.6-3.6-7.6-6.7-12.1-9.4c-4.5-2.7-9.3-4.9-14.3-6.6
			s-10.2-2.8-15.5-3.4s-10.7-0.6-16.1,0C74.2,65,63.6,68.4,54,74.2C44.4,79.8,35.9,87.7,29.2,97.1z"/>
	</g>
	<path class="st5" d="M200.1,162.8c-1.4,30.3-61.4,103.1-94.3,103.1c-34.9,0-94.3-72.9-94.3-103.1v-115c0-7.1,3.7-13.8,9.8-17.5
		c39.5-23.9,133.5-26,170.2-0.5c5.5,3.8,8.7,10.1,8.7,16.8L200.1,162.8L200.1,162.8z"/>
	<polygon class="st6" points="105.8,321.6 59.6,254.3 105.8,270.8 152.1,254.3 	"/>
</g>
<g id="Спираль" class="st0">
	<polygon class="st7" points="105.8,321.6 59.6,254.3 105.8,270.8 152.1,254.3 	"/>
	<path class="st7" d="M4.8,117.6c6.5-14,16.5-26.8,28.9-36.8S61.3,63.7,77.2,60c8-1.8,16.3-2.7,24.5-2.6c8.3,0.1,16.6,1,24.8,2.9
		c8.1,1.9,16.1,4.8,23.7,8.5c7.6,3.7,15,8.4,21.5,14.1c13.2,11.3,23.2,26.3,28.9,42.9s7,34.8,3.5,52.3c-1.7,8.7-4.6,17.2-8.5,25.2
		c-2,3.9-4.2,7.9-6.9,11.7c-2.6,3.8-5.5,7.4-8.6,10.7c-12.6,13.5-29.6,22.6-47.6,26.3c-9,1.8-18.4,2.3-27.6,1.2
		c-4.6-0.6-9.2-1.4-13.6-2.6c-4.5-1.3-8.8-2.8-13.1-4.7c-4.2-1.9-8.2-4.1-12.3-6.7c-4-2.6-7.7-5.6-11.2-8.9
		c-6.9-6.6-12.5-14.6-16.6-23.2c-4.1-8.6-6.6-18-7.3-27.5c-0.8-9.5,0.3-19.1,3-28.3c1.3-4.6,3.1-9,5.3-13.2
		c2.1-4.2,4.7-8.4,7.7-12.2c6-7.7,13.8-14.1,22.5-18.5s18.3-7,28-7.4c9.7-0.5,19.5,1.2,28.4,4.8c1.1,0.4,2.2,1,3.3,1.4l3.2,1.6
		l3.1,1.8c1,0.7,2.1,1.3,3.1,2c4.1,2.8,7.8,6.1,11.1,9.9c6.5,7.5,10.9,16.6,12.9,26.2c2,9.6,1.6,19.6-1.3,28.8
		c-1.5,4.6-3.5,9-6,13.1c-1.4,1.9-2.9,3.8-4.5,5.6c-1.6,1.7-3.4,3.4-5.3,4.9c-3.8,3-8,5.4-12.6,7c-4.5,1.6-9.3,2.3-13.9,2
		c-4.6-0.2-9-1.5-12.9-3.3c-3.9-1.9-7.2-4.5-9.9-7.4c7.8,1.9,15.4,1.6,21.5-0.7s10.7-6.4,14-11.3c1.6-2.5,3-5.1,4.1-7.9
		c1.3-2.6,2.3-5.4,3-8.1c1.3-5.6,1.2-11.4-0.4-16.9c-1.5-5.5-4.4-10.4-8.2-14.4c-1.9-2-4.1-3.7-6.4-5.2c-0.6-0.4-1.2-0.7-1.8-1
		l-1.9-1l-2-0.9c-0.7-0.3-1.3-0.5-2-0.8c-5.5-1.9-11.3-2.6-16.9-2.1c-5.7,0.5-11.3,2.2-16.2,4.9c-5,2.7-9.2,6.5-12.6,11
		c-1.7,2.2-3.1,4.6-4.4,7.4c-1.3,2.7-2.3,5.4-3.1,8.3c-3,11.3-2,23.8,3.1,34.4c2.5,5.3,6,10.1,10.2,14.1c4.2,4.1,9.1,7.3,14.8,9.9
		c11.2,5.1,23.9,6.6,36.1,4.5s23.7-8.1,32.5-16.9c2.2-2.2,4.2-4.6,6.1-7.1c1.9-2.5,3.5-5.2,5.1-8.1c3-5.8,5.5-11.8,7-18.1
		s2.3-12.9,2.1-19.5c-0.1-6.6-1-13.2-2.8-19.6s-4.4-12.6-7.8-18.4c-1.6-2.9-3.6-5.7-5.6-8.4c-2.1-2.6-4.2-5.2-6.7-7.6
		c-4.8-4.8-10.1-9-16.1-12.5c-6-3.6-12.4-6.5-19.1-8.8c-6.7-2.3-13.7-3.8-20.7-4.5s-14.3-0.8-21.5,0C65.1,74.6,50.8,79.2,38,86.9
		C25.1,94.4,13.8,104.9,4.8,117.6z"/>
</g>
<g class="st0">
	<polygon class="st8" points="105.8,321.6 59.6,254.3 105.8,270.8 152.1,254.3 	"/>
	<path class="st9" d="M93.2,217.1c0-5.2,0-10.4,0-15.6c0-3.6,1.6-5.2,5.2-5.2c5.2,0,10.4,0,15.6,0c3.4,0,5.1,1.5,5.1,4.9
		c0.1,10.8,0,21.7,0,32.5c0,1.3-0.5,1.6-1.7,1.6c-7.5,0-15,0-22.5,0c-1.5,0-1.8-0.6-1.8-1.9C93.3,228,93.2,222.5,93.2,217.1z"/>
	<path class="st9" d="M64,222.3c-2.6,0-5.3,0-7.9,0c-1.3,0-1.8-0.3-1.8-1.7c0.1-5.2-0.1-10.4,0.1-15.6c0.1-5.2,5.9-9.3,11-8.5
		c5.2,0.7,8.6,5.3,8.5,10.6c-0.1,4.5-0.1,8.9,0,13.4c0,1.4-0.5,1.9-1.9,1.9C69.2,222.2,66.6,222.3,64,222.3z"/>
	<path class="st9" d="M148.4,222.3c-2.7,0-5.4,0-8.1,0c-1.1,0-1.6-0.4-1.6-1.5c0-5.3-0.1-10.7,0.1-16c0.2-5,6-9.3,11-8.2
		c5.8,1.3,8.4,4.5,8.4,10.3c0,4.3-0.1,8.7,0,13c0,1.8-0.4,2.6-2.4,2.4C153.4,222.2,150.9,222.3,148.4,222.3L148.4,222.3z"/>
	<path class="st9" d="M105.7,150.8c-4,0.1-9.4-4.3-9.2-9.9c0.2-5.1,4.5-9.6,9.5-9.5c6.1,0.1,10,4,10,9.5
		C115.8,146.6,112.5,150.6,105.7,150.8z"/>
	<path class="st8" d="M206.9,157.5c-19.2-12.6-38.4-25.1-57.7-37.6c-1.9-1.2-2.7-2.5-2.7-4.8c0.2-8.2,0-16.5,0.1-24.7
		c0-3.2-1-5.8-3.3-8.1c-8.8-8.5-28.9-28.7-37.5-37.4L95,56.4c-8.3,8.4-16.6,16.8-25,25c-2.8,2.7-4.4,5.6-4.2,9.7
		c0.3,8.1,0,16.1,0.1,24.2c0,2-0.6,3.2-2.3,4.3c-9.7,6.2-19.3,12.6-28.9,18.9c-10.1,6.6-20.1,13.1-30.2,19.7c-3.1,2-4,4.7-2.6,7.5
		c1.2,2.2,2.5,4.4,3.9,6.5c1.8,2.6,4.2,3.1,7,1.6c0.7-0.4,1.4-0.9,2.2-1.3c0.6-0.3,1.3-0.6,2-0.9c0.1,0.7,0.4,1.4,0.4,2.1
		c0,15.6,0,31.1,0.1,46.7c0,2.1-0.7,2.7-2.7,2.7c-3.3,0-5.2,2.2-5.4,5.5c0,1.1,0.1,2.2,0,3.3c-0.6,4.9,2.4,7.4,7.3,7.4
		c29.9-0.2,59.7-0.1,89.6-0.1c17.6,0,35.2,0,52.7,0c12.6,0,25.2,0,37.8,0c3.5,0,5.8-1.5,6.1-4.4c0.3-2.2,0.3-4.6,0-6.8
		c-0.4-3.2-1.8-4.7-5.1-4.8c-2.7-0.1-2.8-1.4-2.8-3.5c0.1-14.7,0-29.4,0-44.2c0-1.3,0.2-2.6,0.4-3.9c1.2,0.6,2.4,1.1,3.5,1.7
		c3.5,2.1,6.1,1.5,8.3-2c0.7-1.1,1.4-2.3,2.1-3.5C212.3,162.9,211.8,160.7,206.9,157.5z M65.9,204.6c0,1.8-0.6,2.4-2.3,2.3
		c-3.3-0.1-6.6,0-9.8,0c-3.3,0-6.6-0.1-9.8,0c-1.6,0-2.3-0.4-2.3-2.1c0.1-6.5-0.1-12.9,0.1-19.4c0.2-6.4,7.3-11.5,13.6-10.6
		c6.5,0.9,10.7,6.5,10.5,13.2C65.8,193.6,65.8,199.1,65.9,204.6z M105.8,93.9c7.6,0.1,12.4,5,12.4,11.8c-0.1,7.1-4.2,12.1-12.6,12.4
		c-5,0.2-11.7-5.3-11.5-12.3C94.3,99.5,99.6,93.8,105.8,93.9z M120.3,223.1c-9.3,0-18.7-0.1-28,0c-1.9,0-2.2-0.8-2.2-2.4
		c0.1-6.7,0-13.5,0-20.2c0-6.5,0-12.9,0-19.4c0-4.5,2-6.4,6.5-6.4c6.5,0,12.9,0,19.4,0c4.2,0,6.3,1.9,6.3,6.1
		c0.1,13.5,0,26.9,0.1,40.4C122.4,222.6,121.8,223.1,120.3,223.1z M167.9,207c-3.1-0.2-6.2,0-9.3,0l0,0c-3.4,0-6.7,0-10.1,0
		c-1.4,0-2-0.5-1.9-1.9c0-6.6-0.1-13.3,0.1-19.9c0.2-6.3,7.5-11.5,13.7-10.2c7.1,1.6,10.4,5.6,10.5,12.9c0,5.4-0.1,10.8,0.1,16.1
		C170.9,206.2,170.4,207.1,167.9,207z"/>
</g>
<g class="st0">
	<polygon class="st8" points="105.8,321.6 59.6,254.3 105.8,270.8 152.1,254.3 	"/>
	<path class="st8" d="M116.8,15.5c-2.3-2.3-4.5-4.5-6.5-6.5c-2.4-2.4-6.3-2.4-8.7-0.1l-6.9,6.6C87.1,23.3,79.4,31,71.8,38.7
		c-4,4-8,8-11.9,11.9c-1.5,1.5-2.1,3.4-1.3,5.4c0.7,2,2.4,2.8,4.5,2.8c1.4,0,2.8,0.2,4.2,0.3c0.1,0.4,0.2,0.7,0.2,1
		c0,11.2,0,22.4,0,33.5c0,0.7-0.5,1.7-1.1,2.2c-8.9,7.8-17.8,15.5-26.7,23.2c-7.1,6.2-14.2,12.2-21.2,18.5c-4.5,4-6.3,9.1-4.6,15
		c1.6,5.5,5.4,8.7,10.9,9.8c2.2,0.4,4.4,0.5,6.8,0.8c0,0.8,0,1.7,0,2.6c0,24.5,0,49,0,73.5c0,3,0.8,5.4,3.7,6.8
		c16.5,0,32.9,0,49.4,0c0-11,0.1-22,0.2-32.9c0-5.8-0.1-11.6,0.4-17.4c0.6-8.1,5.2-13.8,12.5-17c7.2-3.1,14.3-2.3,20.8,2.3
		c6.7,4.7,9,11.5,9,19.3c0,14.2,0,28.4-0.1,42.6c0,1.1,0.1,2.1,0.2,3.2c16.5,0,32.9,0,49.4,0c2.3-1.2,3.6-3,3.6-5.8
		c0-14.5,0-29,0-43.4c0-11.2,0-22.5,0-34c1.5,0,2.8,0,4.1,0c11.3-0.2,18-12.1,12-21.7c-1.6-2.6-4.2-4.6-6.5-6.7
		c-14.6-12.8-29.2-25.5-43.8-38.3c-0.9-0.8-1.6-2.3-1.6-3.6c-0.1-9.5-0.1-19-0.1-28.4c0-1.7,0-3.3,0-5.3c1.3,0,2.2,0,3.2,0
		c2.4,0,4.8-0.3,5.7-2.9c0.9-2.5-0.4-4.3-2.2-6.1 M118.3,83.1c0,3,0,6.1,0,9.1c0,3.5-1,4.6-4.3,4.6c-5.4,0-10.7,0-16.1,0
		c-2.5,0-4-1.1-4-3.6c0-7.4-0.2-14.8,0.3-22.2c0.3-5.7,5.8-10,11.7-10.1c5.8-0.1,11.1,4,11.8,9.6c0.6,4.1,0.5,8.4,0.8,12.5
		C118.5,83.1,118.4,83.1,118.3,83.1z"/>
</g>
<g class="st0">
	<path class="st9" d="M112.4,189.9c-2.4,0-4.7,1.8-4.7,4.2c-0.1,5.5-0.1,11.1,0,16.8c0,0.5,0.4,0.9,0.9,0.9h7.9
		c0.5,0,0.9-0.4,0.9-0.9c0-5.6,0.1-11.1,0-16.6C117.1,191.7,114.9,189.8,112.4,189.9z"/>
	<path class="st9" d="M133.8,189.8c-2.9,0-4.9,2.1-4.9,5.4c0,4.9,0,9.9,0,14.8c0,0.3,0,0.6,0.1,0.9c0.1,0.4,0.4,0.8,0.9,0.8h7.9
		c0.5,0,0.9-0.4,0.9-0.9c0-5.3,0-10.4,0-15.5C138.6,192,136.7,189.9,133.8,189.8z"/>
	<path class="st9" d="M145.7,30c-0.3-0.8-1.4-0.8-1.7,0c-5,12.9-9.8,25.4-14.8,38.1c-0.2,0.6,0.2,1.2,0.8,1.2h3.4
		c0.5,0,0.9,0.4,0.9,0.9v64.2c0,0.5,0.4,0.9,0.9,0.9c1.1,0,2.1,0.1,3.1,0c1.2-0.1,1.9,0.3,2.6,1.3c5.4,7.1,10.8,14.1,16.2,21.1
		c0,0.1,0.1,0.1,0.1,0.2c0.5,0.7,1.6,0.3,1.6-0.5v-82c0-0.5,0.4-0.8,0.8-0.9c0.3,0,0.7-0.1,1-0.1c0.6,0,1-0.6,0.8-1.2
		C156.2,58.8,151,44.6,145.7,30z"/>
	<path class="st9" d="M83.3,172.4c-7.7-8.5-15.4-17.1-23.1-25.6c-0.2-0.2-0.4-0.4-0.6-0.5c-0.4-0.3-1-0.3-1.3,0.1
		c-0.1,0.1-0.2,0.2-0.3,0.4c-6.5,8.7-13.1,17.3-19.6,26c-0.6,0.8-0.9,2-0.9,3.1c-0.1,15.7-0.1,31.4-0.1,47.2c0,3.4,0,6.7,0,10.3
		c0,0.5,0.5,1,1,0.9c4.8-0.8,9.3-1.5,13.9-2.3c0.4-0.1,0.7-0.4,0.7-0.9c0-7.3,0-14.3,0-21.4c0-2.4,0-4.8,0-7.2c0-4.5,3-7.5,7.5-7.6
		c3.9-0.1,7.2,3.3,7.2,7.6c0,8.3,0,16.6,0,25c0,0.5,0,1,0,1.5s0.5,0.9,1,0.9c5-0.5,9.9-1,14.8-1.5c0.4,0,0.7-0.3,0.8-0.7
		c0-0.1,0-0.2,0-0.3c0-17.5,0-35,0-52.5C84.3,173.9,83.8,173,83.3,172.4z"/>
	<polygon class="st10" points="105.8,321.6 59.6,254.3 105.8,270.8 152.1,254.3 	"/>
</g>
<g class="st0">
	<path class="st10" d="M30.5,253.2c-1.3,0-2.4-1.1-2.4-2.4v-15.7c0-0.2,0-0.4,0.1-0.6c0-0.2,0.1-0.4,0.1-0.7
		c-0.1-17.4-0.1-35.6,0-55.9c0-0.8-0.1-0.9-0.6-1c-1.2-0.4-2.3-0.8-3.5-1.3l-0.6-0.3c-0.6-0.3-1.1-0.8-1.4-1.5
		c-0.2-0.7-0.1-1.4,0.2-2c0.2-0.3,0.4-0.6,0.5-0.8c2.3-3,4.5-6,6.7-9.1c6.3-8.5,12.8-17.3,19.5-25.8c0.4-0.5,0.7-0.9,0.9-1.4
		c0.4-0.8,1.2-1.2,2.1-1.2h72.8c0-0.1,0-0.1,0-0.2l0.1-14.9c0.1-13,0.1-25.9,0.2-38.9c0-0.7,0-0.8-0.7-1c-1.6-0.5-3.1-1.1-4.7-1.8
		l-1.2-0.5c-1.2-0.5-1.8-1.9-1.3-3.1l1.5-3.9c1.2-3.1,2.4-6.2,3.6-9.2l4.7-12c4.8-12.3,9.5-24.6,14.3-37c0.5-1.3,0.7-2.6,0.8-3.9
		l1.5-0.1h-1.5c0-1.3,1.1-2.4,2.4-2.4h18.7c3.5,0,7.1,0,10.6,0c1.4,0,3,0.3,3.7,2.6c5.3,16.5,10.6,32.9,16,49.3l5,15.4
		c0.1,0.3,0.2,0.5,0.2,0.8c0.2,0.7,0,1.5-0.4,2.1c-0.5,0.6-1.1,0.9-1.9,0.9h-7.6v67.7c0,0.1,0.1,0.3,0.1,0.4v101.9
		c0,0.4-0.2,0.8-0.5,1.1s-0.7,0.4-1,0.4c0,0,0,0-0.1,0c-14.1-0.7-28.9-1.1-43.8-1.1c-8.9,0-18.2,0.1-27.5,0.4
		c-24.3,0.7-46.4,2.1-67.6,4.4c-6.1,0.7-12,1.4-17.5,2.1C30.7,253.2,30.6,253.2,30.5,253.2z M55.3,152.8
		c-5.1,6.8-10.5,13.9-15.6,20.8c-0.4,0.5-0.6,1.4-0.6,2.2C39,189.2,39,202.8,39,216v7c0,2.5,0,5.1,0,7.7v1.9l12.7-2.1v-20.9
		c0,0,0-5.9,0-7.2c0-5.3,3.6-9,9-9.1h0.2c4.7,0,8.6,4.1,8.6,9c0,5.9,0,11.8,0,17.7v8.1l13.6-1.4v-5.8c0-15.1,0-30.8,0-46.2
		c0-0.3-0.3-0.9-0.7-1.4c-7-7.7-14.1-15.6-21-23.2l-2.1-2.4L55.3,152.8z M137.1,210.3v-3.5c0-3.8,0-7.6,0-11.4c0-1.2-0.3-4-3.3-4
		v-1.5v1.5c-2.1,0-3.3,1.5-3.4,3.9c0,4.3,0,8.7,0,13v1.8c0,0.1,0,0.1,0,0.2H137.1z M115.7,210.2c0-1.2,0-2.5,0-3.7
		c0-4.2,0-8.2-0.1-12.2c0-1.8-1.7-2.9-3.3-2.9v-1.5v1.5c-1.5,0-3.2,1.1-3.2,2.8c-0.1,4.1-0.1,8.2-0.1,12.5c0,1.2,0,2.4,0,3.6h6.7
		V210.2z M138.8,133.7c1.7,0,2.7,1,3.4,1.9c4.3,5.7,8.8,11.5,13.1,17.1l2.2,2.8V75.3c0-1.2,1-2.3,2.2-2.4h0.2L144.8,32L131,67.8h2.5
		c1.3,0,2.4,1.1,2.4,2.4v63.6c0.4,0,0.7,0,1,0c0.5,0,0.9,0,1.3-0.1C138.4,133.7,138.6,133.7,138.8,133.7z"/>
	<path class="st9" d="M173.8,6.2c1.2,0,1.8,0.3,2.2,1.6c7,21.6,14,43.2,21,64.7c0.1,0.2,0.1,0.5,0.2,0.7c0.1,0.6-0.3,1.1-0.9,1.1
		h-8.2c-0.5,0-0.9,0.4-0.9,0.9v68.4c0,0.1,0,0.2,0.1,0.3v13.7v68.5v19.8c-14.6-0.7-29.2-1.1-43.9-1.1c-9.2,0-18.3,0.1-27.5,0.4
		c-22.6,0.6-45.2,2-67.8,4.4c-5.9,0.6-11.7,1.3-17.6,2.1h-0.1c-0.5,0-0.9-0.4-0.9-0.9v-15.7c0-0.1,0-0.2,0-0.2
		c0.1-0.3,0.1-0.6,0.1-1.1c-0.1-18.6-0.1-37.3,0-55.9c0-1.3-0.3-2.1-1.6-2.5c-1.3-0.4-2.6-1-4-1.5c-0.5-0.2-0.7-0.8-0.4-1.3
		c0.1-0.2,0.3-0.5,0.5-0.7c8.7-11.6,17.2-23.4,26.2-34.8c0.4-0.6,0.8-1.1,1.1-1.6c0.2-0.3,0.4-0.5,0.8-0.5H58c8.8,0,17.6,0,26.3,0
		h41.2c0.4,0,0.8-0.3,0.9-0.8c0-0.3,0.1-0.6,0.1-0.9c0.1-17.9,0.1-35.8,0.3-53.8c0-1.4-0.5-2-1.7-2.4c-1.9-0.6-3.8-1.4-5.8-2.2
		c-0.5-0.2-0.7-0.7-0.5-1.1c1.7-4.5,3.4-8.8,5-13.1c6.3-16.3,12.7-32.7,18.9-49c0.5-1.4,0.8-2.9,0.9-4.5V7.1c0-0.5,0.4-0.9,0.9-0.9
		h14.1l0,0c1.5,0,3.1,0,4.6,0C166.7,6.2,170.2,6.2,173.8,6.2L173.8,6.2 M130.1,69.3h3.4c0.5,0,0.9,0.4,0.9,0.9v64.2
		c0,0.5,0.4,0.9,0.9,0.9c0.6,0,1.1,0,1.7,0c0.5,0,1,0,1.5-0.1c0.1,0,0.3,0,0.4,0c1,0,1.6,0.5,2.2,1.3c5.4,7.1,10.8,14.1,16.2,21.1
		c0,0.1,0.1,0.1,0.1,0.2c0.2,0.2,0.4,0.3,0.7,0.3c0.5,0,0.9-0.3,0.9-0.9v-82c0-0.5,0.4-0.8,0.8-0.9c0.3,0,0.7-0.1,1-0.1
		c0.6,0,1-0.6,0.8-1.2c-5.4-14.2-10.6-28.4-15.9-43c-0.1-0.4-0.5-0.6-0.8-0.6s-0.7,0.2-0.8,0.6c-5,12.9-9.8,25.4-14.8,38.1
		C129,68.7,129.5,69.3,130.1,69.3 M38.2,234.2L38.2,234.2c4.9-0.8,9.4-1.5,14-2.3c0.4-0.1,0.7-0.4,0.7-0.9c0-7.3,0-14.3,0-21.4
		c0-2.4,0-4.8,0-7.2c0-4.5,3-7.5,7.5-7.6h0.1c3.8,0,7.1,3.4,7.1,7.6c0,8.3,0,16.6,0,25c0,0.5,0,1,0,1.5s0.4,0.9,0.9,0.9h0.1
		c5-0.5,9.9-1,14.8-1.5c0.4,0,0.7-0.3,0.8-0.7c0-0.1,0-0.2,0-0.3c0-17.5,0-35,0-52.5c0-0.8-0.5-1.7-1.1-2.3
		c-7.7-8.5-15.4-17.1-23.1-25.6c-0.2-0.2-0.4-0.4-0.6-0.5c-0.2-0.2-0.4-0.2-0.6-0.2c-0.3,0-0.5,0.1-0.7,0.3
		c-0.1,0.1-0.2,0.2-0.3,0.4c-6.5,8.7-13.1,17.3-19.6,26c-0.6,0.8-0.9,2-0.9,3.1c-0.1,15.7-0.1,31.4-0.1,47.2c0,3.4,0,6.7,0,10.3
		C37.4,233.8,37.8,234.2,38.2,234.2 M129.8,211.8h7.9c0.5,0,0.9-0.4,0.9-0.9c0-5.3,0-10.4,0-15.5c0-3.4-1.9-5.5-4.8-5.5l0,0
		c-2.9,0-4.8,2.2-4.9,5.4c0,4.9,0,9.9,0,14.8c0,0.3,0,0.6,0.1,0.9C129,211.4,129.4,211.8,129.8,211.8 M108.5,211.7h7.9
		c0.5,0,0.9-0.4,0.9-0.9c0-5.6,0.1-11.1,0-16.6c-0.1-2.6-2.3-4.4-4.8-4.4l0,0c-2.4,0-4.7,1.8-4.7,4.2c-0.1,5.5-0.1,11.1,0,16.8
		C107.6,211.3,108,211.7,108.5,211.7 M173.8,3.2C173.8,3.2,173.7,3.2,173.8,3.2c-3.6,0-7.1,0-10.6,0h-4.6h-14.1
		c-2.1,0-3.9,1.7-3.9,3.8v0.1c0,1.2-0.2,2.3-0.7,3.4c-4.7,12.3-9.6,24.8-14.3,36.9L121,59.6c-1.2,3.1-2.4,6.3-3.7,9.5l-1.4,3.6
		c-0.8,2,0.2,4.2,2.2,5l1.2,0.5c1.5,0.6,2.9,1.2,4.4,1.7c-0.1,12.8-0.1,25.8-0.2,38.4c0,4.6,0,9.2-0.1,13.8h-39H58.1h-5.8
		c-1.4,0-2.7,0.8-3.4,2c-0.2,0.4-0.5,0.8-0.8,1.2c-6.7,8.5-13.3,17.3-19.6,25.8c-2.2,3-4.5,6-6.7,9.1c-0.3,0.4-0.5,0.7-0.6,1
		c-0.6,1-0.7,2.2-0.4,3.2c0.4,1.1,1.2,1.9,2.2,2.4l0.7,0.3c1.1,0.4,2.1,0.8,3.1,1.2c0,20.2,0,38.5,0,55.6c0,0.2,0,0.3,0,0.3
		c-0.1,0.3-0.1,0.6-0.1,1v15.7c0,2.1,1.7,3.9,3.9,3.9c0.2,0,0.3,0,0.5,0c5.6-0.7,11.5-1.4,17.5-2.1c21.2-2.3,43.3-3.7,67.5-4.4
		c9.3-0.3,18.5-0.4,27.4-0.4c14.9,0,29.6,0.4,43.7,1.1c0.1,0,0.1,0,0.2,0c0.8,0,1.5-0.3,2.1-0.8c0.6-0.6,0.9-1.4,0.9-2.2v-19.8
		v-68.5V144c0-0.2,0-0.4-0.1-0.6v-66h6.1c1.2,0,2.3-0.5,3.1-1.5c0.7-1,1-2.2,0.7-3.3c-0.1-0.3-0.2-0.6-0.3-0.9L195,56.5
		c-5.3-16.3-10.7-33.1-16.1-49.7C178.1,4.4,176.4,3.2,173.8,3.2L173.8,3.2z M133.2,66.3l4.3-11.2l7.3-18.9l4.7,12.8l8.4,22.8
		c-1.2,0.7-1.9,1.9-1.9,3.4V151c-4.1-5.4-8.4-10.9-12.5-16.4c-0.8-1.1-2.2-2.5-4.6-2.5c-0.2,0-0.5,0-0.7,0s-0.4,0-0.7,0V70.2
		c0-2.1-1.7-3.9-3.9-3.9L133.2,66.3L133.2,66.3z M40.4,230.8v-0.1c0-2.6,0-5.1,0-7.6v-7.2c0-13.1,0.1-26.6,0.1-39.9
		c0-0.6,0.2-1.1,0.3-1.3c5.2-7,10.5-14,15.6-20.9l2.7-3.5l1,1.1c6.9,7.6,14,15.4,20.9,23.1c0.2,0.2,0.3,0.4,0.3,0.5
		c0,15.5,0,31.2,0,46.4v4.1l-10.1,1h-0.4c0-2.2,0-4.3,0-6.5c0-5.8,0-11.8,0-17.7c0-5.8-4.5-10.5-10.1-10.5h-0.2
		c-6.2,0.1-10.5,4.5-10.5,10.6c0,1.3,0,2.7,0,4c0,1,0,2.1,0,3.1V225v4.2h-0.1L40.4,230.8L40.4,230.8z M131.9,208.8v-0.2
		c0-4.3,0-8.8,0-13.3c0-0.9,0.3-2.5,1.9-2.5c0.5,0,1.8,0,1.8,2.5c0,3.8,0,7.6,0,11.5v1.9h-3.7V208.8z M110.6,208.7
		c0-0.7,0-1.4,0-2.1c0-4.3,0-8.3,0.1-12.4c0-0.7,0.8-1.3,1.7-1.3c0.8,0,1.8,0.6,1.8,1.5c0.1,4,0.1,8,0.1,12.2c0,0.7,0,1.4,0,2.1
		H110.6L110.6,208.7z"/>
</g>
<g class="st0">
	<g class="st3">
		<path class="st11" d="M65.7,139.2L65.7,139.2L65.7,139.2z"/>
		<g>
			<path class="st11" d="M72.4,251.8l-0.2-0.8c0-0.1,0-0.2-0.1-0.3c-0.1-0.3-0.2-0.7-0.2-1.1c0-0.4,0-0.8,0.1-1.2
				c0-0.2,0-0.4,0.1-0.5l0.1-0.8l2.8-0.5l0.3-2.6c-3.9,0-7.8,0-11.7,0h-15v-66l-3.7-3L65,163.3c0-3.7-0.1-7.7-0.1-11.5
				c-0.1-3.6-0.1-7.3-0.1-10.9l-1,0.6l-3.4-4l23.7-18.7V88.1l0.7-0.2c1.8-0.6,16.7-0.8,24.4-0.8c3.5,0,15.3,0,17.7,0.5l0.8,0.2v4
				l0.4,27c3.6,2.8,7.3,5.7,11,8.7c3.9,3.1,7.9,6.3,11.7,9.3l0.8,0.6l-3.2,4.1l-1.6-0.8v1.6c0,4.5,0,9.1,0,13.6v7.4l20.2,11.3
				l-3.5,3.3v65.8h-1c-2.7,0.1-5.6,0.2-9.3,0.2c-1.8,0-3.5,0-5.3,0c-1.7,0-3.5,0-5.2,0c-2.3,0-4.3,0-6.2,0.1l0.4,2.6l2.7,0.6
				l0.3,4.7H72.4V251.8z M119,239.8V235c0-6,0-11.7-0.1-17.5c0-0.9-0.6-2-1.1-2.9c-2.2-4-6.7-6.4-11.7-6.4c-1.6,0-3.1,0.2-4.6,0.7
				c-5.3,1.7-8.9,6.5-8.7,11.7c0.2,4,0.1,8,0.1,11.9c0,1.9,0,3.9,0,5.8c0,0.5,0.1,1,0.1,1.5l0,0H119z M69.7,213.7
				c0.9,0.1,1.9,0.3,2.9,0.3c0.8,0,1.6-0.1,2.3-0.2v-9h-5.2C69.7,204.8,69.7,213.7,69.7,213.7z M135.8,213.7c0.4,0,0.8,0,1.2,0.1
				c0.7,0,1.4,0.1,2,0.1c0.8,0,1.4-0.1,2-0.2v-9.1h-5.2V213.7z M66.7,213.6c0-0.9,0-1.7,0.1-2.5c0.1-2.3,0.2-4.4-0.2-6.5h-5.3v9
				H66.7z M149.3,213.6v-9h-5.1v9H149.3z M140.9,201.4v-8.9c-1.8,0.4-3.1,1.2-4,2.4c-1.1,1.5-1.5,3.8-1.1,6.6h5.1V201.4z
				 M149.3,201.4c0.3-3.2-0.3-5.6-1.6-7.1c-0.9-1-2.1-1.6-3.6-1.7v8.8H149.3z M66.7,201.3v-1.4c0-2.5,0-4.9,0-7.3
				c-4.1,0.8-5.7,3.5-5.3,8.7H66.7z M74.8,201.3c0.4-2.6,0-4.8-1.2-6.4c-0.9-1.2-2.3-2-4.1-2.3v8.6L74.8,201.3L74.8,201.3z
				 M105.8,148c-2,0-3.8,0.8-5.1,2.1c-1.4,1.4-2.1,3.3-2.1,5.3c0,3.9,3.3,7.2,7.2,7.2c4,0,7.4-3.4,7.4-7.4c0-1.9-0.7-3.6-2.1-5
				C109.8,148.8,107.8,148,105.8,148v-1V148z M113.9,116.4V106h-6.3v10.4H113.9z M104.7,116.4V106h-6.3v10.4H104.7z M104.7,103V92.8
				c-2.4,0.5-4.3,1.8-5.4,3.6c-1.2,1.9-1.5,4.2-0.8,6.6H104.7z M113.9,103c0.2-3.4-0.4-6.1-1.9-7.8c-1.1-1.3-2.6-2-4.5-2.3V103
				H113.9z"/>
			<path class="st12" d="M109.1,88.1c8.2,0,15.8,0.2,17.5,0.5c0,1,0,2.1,0,3.2l0.4,27.5c7.4,5.8,15.5,12.3,23.1,18.2
				c-0.8,1-1.5,1.9-2.1,2.7c-1-0.5-1.5-0.7-2.3-1.1c0,0,0,2.1,0,3.2c0,6.1,0,12.2,0,18.3c0,1.1,0,2.2,0,3.2
				c6.5,3.7,12.8,7.2,19.5,11c-1,0.9-1.6,1.6-2.8,2.6c0,21.2,0,43.1,0,65.2c-3.1,0.1-6.2,0.2-9.3,0.2c-3.5,0-7,0-10.5,0
				c-3.2,0-6.4,0-9.6,0.2c0,0.3,0,0.6-0.1,0.9c0.8,0.2,1.6,0.4,2.6,0.7c0.1,0.7,0.3,1.6,0.5,2.7c0.8,0.2,1.6,0.4,2.6,0.6
				c0.1,0.9,0.1,1.8,0.2,2.9c-21.9,0-43.7,0-65.7,0c-0.1-0.4-0.2-0.8-0.3-1.3c0-0.5,0.1-1,0.1-1.6c0.9-0.2,1.8-0.3,2.7-0.5
				c0.1-1,0.2-1.9,0.3-2.7c1-0.2,1.8-0.5,2.9-0.7c-0.5-0.9-1.2-1.1-1.9-1.1c-0.4,0-0.8,0.1-1.1,0.1l0,0c-4.2,0-8.4,0-12.5,0
				c-3.5,0-7,0-10.5,0c-0.1,0-0.1,0-0.2,0c-1,0-2,0-3.2,0c0-22.1,0-43.9,0-65.5c-1-0.8-1.8-1.4-3-2.4c6.7-3.8,13-7.4,19.5-11
				c0-7.9-0.3-16.6-0.3-24.7l0,0l0,0l0,0l0,0l0,0l0,0l0,0l0,0l0,0l0,0c-1.4,0.8,0,0-1.7,1c-0.6-0.7-1.3-1.6-2.2-2.6
				c7.5-5.9,15.7-12.4,23.3-18.4c0-10.2,0-20.3,0-30.4C86.4,88.3,98.3,88.1,109.1,88.1 M97.8,104c2.6,0,5.2,0,7.9,0
				c0-4.2,0-8.2,0-12.4C99.1,92.5,95.7,98,97.8,104 M106.6,104c3,0,5.6,0,8.2,0c0.8-7.5-2.1-11.9-8.2-12.3
				C106.6,95.7,106.6,99.7,106.6,104 M97.4,117.4c2.9,0,5.6,0,8.3,0c0-4.3,0-8.3,0-12.4c-2.8,0-5.4,0-8.3,0
				C97.4,109.3,97.4,113.3,97.4,117.4 M106.6,117.4c2.9,0,5.5,0,8.3,0c0-4.2,0-8.2,0-12.4c-2.8,0-5.4,0-8.3,0
				C106.6,109.3,106.6,113.3,106.6,117.4 M105.9,163.6c4.5,0,8.3-3.8,8.4-8.3s-3.8-8.3-8.4-8.3l0,0c-4.7,0-8.2,3.7-8.2,8.4
				C97.7,159.8,101.3,163.5,105.9,163.6C105.8,163.6,105.8,163.6,105.9,163.6 M135,202.4c2.2,0,4.5,0,6.9,0c0-3.9,0-7.5,0-11.1
				C136.2,191.9,133.7,195.8,135,202.4 M143.1,202.4c2.6,0,4.9,0,7.1,0c0.9-6.9-1.7-10.9-7-10.9h-0.1
				C143.1,195,143.1,198.5,143.1,202.4 M60.5,202.3c2.2,0,4.5,0,7.2,0c0-3.5,0-6.6,0-9.7c0-0.4-0.2-0.7-0.3-1.1
				C61.9,192.2,59.7,195.6,60.5,202.3 M68.6,202.3c2.6,0,4.8,0,7.1,0c1.3-6.2-1.4-10.4-7.1-10.8c0,1.1,0,2.2,0,3.3
				C68.6,197.2,68.6,199.6,68.6,202.3 M138.9,214.8c1,0,2-0.1,3-0.5c0-3.6,0-7.1,0-10.8c-2.4,0-4.7,0-7.2,0c0,4,0,7.5,0,11.1
				C136.2,214.6,137.6,214.8,138.9,214.8 M143.2,214.6c2.5,0,4.8,0,7.1,0c0-4,0-7.4,0-11c-2.5,0-4.8,0-7.1,0
				C143.2,207.3,143.2,210.9,143.2,214.6 M60.3,214.6c2.4,0,4.6,0,7.4,0c0-3.9,0.5-7.5-0.3-11c-2.5,0-4.7,0-7.1,0
				C60.3,207.3,60.3,210.8,60.3,214.6 M72.6,214.9c1.1,0,2.2-0.1,3.3-0.5c0-3.8,0-7.2,0-10.8c-2.5,0-4.7,0-7.2,0c0,3.7,0,7.1,0,10.9
				C70,214.7,71.3,214.9,72.6,214.9 M92.2,240.8c9.3,0,18.4,0,27.8,0c0-7.9,0.1-15.6-0.1-23.3c0-1.1-0.6-2.4-1.2-3.4
				c-2.5-4.4-7.4-6.9-12.6-6.9c-1.6,0-3.3,0.2-4.9,0.7c-5.3,1.6-9.7,6.5-9.4,12.7c0.3,5.9,0.1,11.8,0.1,17.7
				C91.9,239,92.1,239.8,92.2,240.8 M109.1,86.1L109.1,86.1c-2.3,0-22.3,0-24.7,0.8l-1.3,0.5v1.4v29.4l-10.9,8.6
				c-4,3.1-7.9,6.2-11.6,9.2l-1.6,1.3l1.3,1.6l2.2,2.6l1.1,1.3l0.2-0.1c0,3.1,0.1,6.2,0.1,9.2c0.1,3.6,0.1,7.4,0.1,10.9l-10.2,5.8
				l-8.3,4.7l-2.6,1.4l2.3,1.8l2.2,1.8v64.5v2h2h3.2h0.2h5.3h5.3c3,0,6.8,0,10.7,0l-0.1,0.8l-0.4,0.1l-0.9,0.1l-1.5,0.3l-0.1,1.6
				c0,0.2,0,0.4,0,0.5c0,0.4-0.1,0.9-0.1,1.4s0.1,1,0.2,1.3c0,0.1,0,0.2,0.1,0.3l0.3,1.6h1.6h65.7h2.1l-0.1-2.1l-0.1-1.7l-0.1-1.2
				l-0.1-1.5l-1.5-0.3l-1.3-0.3v-0.2l-0.1-0.5c1.5,0,3.1,0,5,0c1.7,0,3.5,0,5.2,0c1.8,0,3.5,0,5.3,0c3.7,0,6.6-0.1,9.4-0.2l1.9-0.1
				v-1.9v-64.4l1-0.9l1.2-1.1l2-1.9l-2.4-1.3l-0.3-0.1l-18.3-10.2v-2v-4.6c0-4.5,0-9.1,0-13.7l0.9,0.4l1-1.3l2.1-2.7l1.2-1.6
				l-1.6-1.2c-3.8-3-7.7-6.1-11.6-9.2c-3.6-2.9-7.2-5.7-10.7-8.4L128.7,92c0-0.7,0-1.5,0-2.2v-1v-1.6l-1.6-0.3
				C124.5,86.1,113.7,86.1,109.1,86.1L109.1,86.1L109.1,86.1z M108.6,102v-7.9c1.1,0.3,2,0.9,2.7,1.7c1.2,1.4,1.7,3.5,1.7,6.2
				L108.6,102L108.6,102z M99.3,102c-0.3-1.9-0.1-3.6,0.9-5.1c0.8-1.3,2-2.2,3.6-2.8v7.9H99.3L99.3,102z M99.4,107h4.3v8.4h-4.3V107
				L99.4,107z M108.6,107h4.3v8.4h-4.3V107L108.6,107z M105.9,161.6L105.9,161.6c-3.4,0-6.2-2.8-6.2-6.2c0-1.8,0.6-3.4,1.8-4.6
				c1.1-1.2,2.7-1.8,4.4-1.8l0,0c1.7,0,3.4,0.7,4.6,1.9s1.8,2.7,1.8,4.3C112.2,158.6,109.3,161.6,105.9,161.6L105.9,161.6z
				 M145.1,200.4v-6.6c0.7,0.2,1.4,0.6,1.8,1.2c1,1.1,1.5,3,1.4,5.5L145.1,200.4L145.1,200.4z M136.7,200.4c-0.2-2.1,0.1-3.8,1-5
				c0.5-0.7,1.2-1.2,2.2-1.6v6.6H136.7L136.7,200.4z M62.4,200.3c-0.1-4,1.2-5.7,3.3-6.4c0,2,0,3.9,0,6v0.4H62.4L62.4,200.3z
				 M70.6,200.3v-5.5v-0.9c1,0.3,1.7,0.9,2.3,1.6c0.9,1.2,1.2,2.8,1.1,4.8L70.6,200.3L70.6,200.3z M136.8,205.5h3.2v7.3
				c-0.3,0-0.6,0-1,0c-0.6,0-1.3,0-1.9-0.1c-0.1,0-0.2,0-0.2,0v-7.2H136.8z M145.2,205.5h3.1v7h-3.1V205.5L145.2,205.5z M62.3,205.6
				h3.4c0.2,1.7,0.1,3.5,0.1,5.4c0,0.5,0,1-0.1,1.6h-3.4L62.3,205.6L62.3,205.6z M70.7,205.6h3.2v7.2c-0.4,0.1-0.8,0.1-1.3,0.1
				c-0.6,0-1.2,0-1.9-0.1L70.7,205.6L70.7,205.6z M94,238.8c0-0.2,0-0.4,0-0.6c0-1.9,0-3.9,0-5.8c0-3.9,0-7.9-0.1-11.9
				c-0.2-5.6,4-9.5,8-10.7c1.4-0.4,2.9-0.7,4.3-0.7c4.7,0,8.8,2.3,10.9,5.9c0.3,0.5,0.9,1.7,1,2.4c0.1,5.8,0.1,11.5,0.1,17.5
				c0,1.3,0,2.5,0,3.8H94V238.8z"/>
		</g>
	</g>
	<polygon class="st8" points="59.6,254.3 105.8,321.6 152.1,254.3 105.8,270.8 	"/>
</g>
<g class="st0">
	<path class="st8" d="M80.9,86.8l21.5-57.7l3.7-9.6l0.8,2.8c1.2,4.1,3.8,10.7,6.1,16.6c1.5,3.9,2.9,7.5,3.8,10.2
		c2.7,7.8,5.7,15.7,8.6,23.3c1.3,3.6,2.7,7.1,4,10.7c0.2,0.5,0.3,1,0.5,1.6c0.1,0.3,0.2,0.5,0.2,0.8l0.4,1.3H80.9z"/>
	<path class="st9" d="M106,22.6c2,6.8,7.6,20.1,9.9,26.8c4,11.4,8.4,22.7,12.6,34.1c0.3,0.7,0.5,1.5,0.7,2.4c-15.6,0-31.1,0-46.9,0
		c7.1-19.1,14.1-37.9,21-56.4L106,22.6 M106.2,16.4l-2.1,5.4l-2.7,6.9l-14,37.5l-7,18.9l-1,2.7h2.9h46.9h2.7l-0.8-2.6
		c-0.1-0.3-0.2-0.6-0.2-0.8c-0.2-0.6-0.3-1.1-0.5-1.7c-1.3-3.6-2.7-7.1-4-10.7c-2.9-7.6-5.8-15.5-8.6-23.3
		c-0.9-2.7-2.3-6.3-3.9-10.2c-2.3-5.8-4.8-12.5-6-16.5L106.2,16.4L106.2,16.4z"/>
</g>
<g>
	<polygon class="st11" points="105.8,321.6 59.6,254.3 105.8,270.8 152.1,254.3 	"/>
	<g>
		<circle class="st13" cx="106.3" cy="139.9" r="91.9"/>
		<path class="st11" d="M84.4,112.9 M84.4,119.2c-18.1-4-32.3,5.2-31.8,22.4l-4.4,6.9c0,2.4,0,4.2,0,5.8c1.5,1,2.7,1.7,3.6,2.3
			c0,19.1,0,37.7,0,56.2c-1.4,1-2.6,1.8-4.1,2.8c0.3,1.7,0.6,3.5,1,5.5c38.8,0,77.1,0.2,115.7-0.1c0-2.5,0-4.1,0-5.7
			c-1.4-1-2.6-2-3.7-2.8c0-18.9,0-37.3,0-55.9c1.3-1,2.6-1.9,4.2-3c-0.3-1.7-0.6-3.3-0.9-5.5l-3.8-7.2c-1-17.7-12-25.3-31.2-22.2
			c-0.3-2,0-11.3-0.3-13.2l0,0c-0.7-13.3-7.8-20.6-19.4-24c0-1.6,0-2.8,0-4l0.7-7.3c-1-3.1-1.7-5.2-2.4-7.4c-0.8,0-1.7,0-2.5,0
			c-0.8,2.3-1.5,4.7-2.4,7.3l0.5,7.2c0,1.5,0,2.9,0,4.2c-14.1,5.9-19.4,12.5-18.7,24 M92.4,211.5c0,0.6-0.3,1.2-0.6,2
			c-5.7,0-11.4,0-17.4,0c-0.3-0.9-0.7-1.9-0.7-2.8c0-11.6,0-23.3,0.4-34.9c0.1-3.9,1.3-7.9,2.4-11.7c0.9-3.1,2.9-5.7,6.6-5.6
			c3.7,0,5.7,2.7,6.6,5.7c1.3,4.2,2.4,8.6,2.5,13C92.6,188.7,92.4,200.1,92.4,211.5z M96.9,147.9c0.1-6.8,0.3-13.3,2.7-19.4
			c1.2-3,3-5.6,6.7-5.6c3.7,0.1,5.4,2.7,6.6,5.7c2.5,5.9,2.5,12.2,2.7,19.2C109,147.9,103.2,147.9,96.9,147.9z M138.4,213.6
			c-6.1,0-11.8,0-18.2,0c0-2.3,0-4.4,0-6.4c0.3-12.2,0.6-24.5,1.2-36.7c0.1-2.4,1.1-4.9,2.1-7.2c1.1-2.7,2.9-4.6,6-4.7
			c3.4-0.1,5.4,2.1,6.6,4.8c1.1,2.7,2.3,5.6,2.3,8.5C138.5,185.5,138.4,199.2,138.4,213.6z"/>
	</g>
</g>
</svg>
