<svg id="Слой_1" data-name="Слой 1" xmlns="http://www.w3.org/2000/svg" viewBox="0 0 211.65 322.53"><defs><style>.cls-1{fill:#fff;stroke-width:23px;}.cls-1,.cls-2{stroke:#662483;stroke-miterlimit:10;}.cls-2,.cls-4{fill:#662483;}.cls-3{fill:none;}</style></defs><title>spiral</title><path class="cls-1" d="M200.15,162.8c-1.45,30.25-61.39,103.14-94.32,103.14-34.95,0-94.33-72.89-94.33-103.14v-115A20.41,20.41,0,0,1,21.27,30.3c39.52-23.9,133.49-26,170.16-.47a20.45,20.45,0,0,1,8.72,16.79Z" transform="translate(0 0)"/><polygon class="cls-2" points="105.83 321.64 59.56 254.27 105.83 270.8 152.09 254.27 105.83 321.64"/><path class="cls-3" d="M107.36,138.72" transform="translate(0 0)"/><path class="cls-4" d="M29.2,97.14a76.48,76.48,0,0,1,21.64-27.5,80.92,80.92,0,0,1,32.5-15.52,84,84,0,0,1,18.34-2,82,82,0,0,1,36.22,8.56,71.56,71.56,0,0,1,16,10.55,73.9,73.9,0,0,1,21.6,32.06,75.6,75.6,0,0,1-3.74,58,73.56,73.56,0,0,1-5.12,8.75,69.67,69.67,0,0,1-6.45,8A67.44,67.44,0,0,1,104,198.55a70.94,70.94,0,0,1-10.2-2A72,72,0,0,1,84,193.06a69.36,69.36,0,0,1-9.18-5,57.58,57.58,0,0,1-8.37-6.66,59.44,59.44,0,0,1-17.88-37.89,58.44,58.44,0,0,1,6.14-31,55.14,55.14,0,0,1,5.79-9.16A50.38,50.38,0,0,1,77.35,89.45a51.57,51.57,0,0,1,20.92-5.56,50.18,50.18,0,0,1,21.24,3.63c.83.34,1.65.71,2.47,1.08l2.41,1.2,2.34,1.33c.78.51,1.57,1,2.33,1.52a44.37,44.37,0,0,1,8.26,7.4A43.71,43.71,0,0,1,146,141.19a44.55,44.55,0,0,1-4.46,9.8,44.57,44.57,0,0,1-3.37,4.15,39.2,39.2,0,0,1-4,3.66,31.88,31.88,0,0,1-9.41,5.24,27,27,0,0,1-10.42,1.5,25,25,0,0,1-9.63-2.5,25.42,25.42,0,0,1-7.43-5.54c5.87,1.38,11.53,1.2,16.07-.53a22,22,0,0,0,10.47-8.45,33.05,33.05,0,0,0,3.07-5.94,27.33,27.33,0,0,0,2.22-6.09,25.58,25.58,0,0,0-.27-12.63,25.17,25.17,0,0,0-6.14-10.75,24.3,24.3,0,0,0-4.77-3.86c-.43-.28-.9-.51-1.33-.78l-1.46-.73-1.49-.66c-.51-.18-1-.39-1.52-.57a31.16,31.16,0,0,0-12.66-1.59A30.06,30.06,0,0,0,78,116.83a33,33,0,0,0-3.3,5.5,34.8,34.8,0,0,0-2.31,6.2,37.22,37.22,0,0,0,2.33,25.7,36.71,36.71,0,0,0,7.66,10.56,38.84,38.84,0,0,0,11,7.42A45.95,45.95,0,0,0,144.7,163a47.93,47.93,0,0,0,4.57-5.28,53.27,53.27,0,0,0,3.81-6,59.79,59.79,0,0,0,5.25-13.57,56,56,0,0,0,1.61-14.56,58.28,58.28,0,0,0-2.09-14.64,59,59,0,0,0-5.79-13.74,60.27,60.27,0,0,0-4.16-6.27,58.16,58.16,0,0,0-5-5.67,60.35,60.35,0,0,0-12.06-9.38,74.18,74.18,0,0,0-14.26-6.6,72.08,72.08,0,0,0-15.52-3.37,74.6,74.6,0,0,0-16.09,0A77.6,77.6,0,0,0,54,74.17,81,81,0,0,0,29.2,97.14Z" transform="translate(0 0)"/></svg>