<?xml version="1.0" encoding="utf-8"?>
<!-- Generator: Adobe Illustrator 23.0.2, SVG Export Plug-In . SVG Version: 6.00 Build 0)  -->
<svg version="1.1" id="Слой_1" xmlns="http://www.w3.org/2000/svg" xmlns:xlink="http://www.w3.org/1999/xlink" x="0px" y="0px"
	 viewBox="0 0 211.6 327.9" style="enable-background:new 0 0 211.6 327.9;" xml:space="preserve">
<style type="text/css">
	.st0{fill:#FFFFFF;}
	.st1{fill:#FFFFFF;stroke:#683C11;stroke-width:23;stroke-miterlimit:10;}
	.st2{display:none;fill:#FFFFFF;stroke:#662483;stroke-miterlimit:10;}
	.st3{fill:#683C11;stroke:#683C11;stroke-width:2;stroke-miterlimit:10;}
	.st4{fill:#683C11;stroke:#683C11;stroke-miterlimit:10;}
	.st5{fill:#683C11;}
</style>
<g id="Щит_Спираль">
	<g>
		<path class="st0" d="M29.2,97.1c4.8-10.5,12.3-20,21.6-27.5s20.5-12.8,32.5-15.5c6-1.3,12.2-2,18.3-2c6.2,0,12.4,0.8,18.5,2.2
			s12,3.6,17.7,6.4c5.7,2.8,11.2,6.3,16.1,10.6c9.8,8.4,17.4,19.7,21.6,32.1c4.3,12.4,5.2,26,2.6,39.1c-1.3,6.5-3.4,12.9-6.4,18.9
			c-1.5,2.9-3.2,5.9-5.1,8.8c-2,2.8-4.1,5.5-6.4,8c-9.4,10.1-22.1,16.9-35.6,19.6c-6.8,1.4-13.8,1.7-20.6,0.9
			c-3.4-0.4-6.8-1.1-10.2-2c-3.3-0.9-6.6-2.1-9.8-3.5c-3.2-1.4-6.2-3.1-9.2-5s-5.8-4.2-8.4-6.7c-5.2-5-9.4-10.9-12.4-17.3
			c-3-6.4-4.9-13.4-5.5-20.6c-0.6-7.1,0.2-14.3,2.2-21.2c1-3.4,2.3-6.7,3.9-9.9c1.6-3.1,3.5-6.3,5.8-9.2
			c4.5-5.8,10.3-10.5,16.8-13.8s13.7-5.2,20.9-5.6c7.3-0.4,14.6,0.9,21.2,3.6c0.8,0.3,1.7,0.7,2.5,1.1l2.4,1.2l2.3,1.3
			c0.8,0.5,1.6,1,2.3,1.5c3,2.1,5.9,4.6,8.3,7.4c4.9,5.6,8.2,12.4,9.7,19.6c1.5,7.1,1.2,14.6-0.9,21.6c-1.1,3.4-2.6,6.8-4.5,9.8
			c-1,1.4-2.2,2.8-3.4,4.1s-2.6,2.5-4,3.6c-2.8,2.3-6,4.1-9.4,5.3s-7,1.7-10.4,1.5s-6.7-1.1-9.6-2.5s-5.4-3.3-7.4-5.6
			c5.9,1.4,11.5,1.2,16.1-0.5s8-4.8,10.5-8.4c1.2-1.9,2.2-3.9,3.1-5.9c1-2,1.7-4,2.2-6.1c0.9-4.2,0.9-8.6-0.3-12.6
			c-1.1-4.1-3.3-7.8-6.1-10.8c-1.4-1.5-3-2.8-4.8-3.9c-0.4-0.3-0.9-0.5-1.3-0.8l-1.5-0.7l-1.5-0.7c-0.5-0.2-1-0.4-1.5-0.6
			c-4.1-1.4-8.4-1.9-12.7-1.6c-4.3,0.3-8.4,1.6-12.1,3.7c-3.7,2-6.9,4.9-9.4,8.2c-1.3,1.7-2.3,3.5-3.3,5.5s-1.7,4.1-2.3,6.2
			c-2.3,8.5-1.5,17.8,2.3,25.7c1.9,4,4.5,7.5,7.7,10.6c3.1,3.1,6.8,5.4,11,7.4c8.3,3.9,17.9,5,27,3.4s17.7-6.1,24.3-12.6
			c1.7-1.6,3.2-3.4,4.6-5.3s2.6-3.9,3.8-6c2.3-4.3,4.1-8.8,5.3-13.6c1.1-4.7,1.7-9.6,1.6-14.6c-0.1-4.9-0.8-9.8-2.1-14.6
			c-1.4-4.8-3.3-9.4-5.8-13.7c-1.2-2.2-2.7-4.2-4.2-6.3c-1.6-2-3.2-3.9-5-5.7c-3.6-3.6-7.6-6.7-12.1-9.4c-4.5-2.7-9.3-4.9-14.3-6.6
			s-10.2-2.8-15.5-3.4s-10.7-0.6-16.1,0C74.2,65,63.6,68.4,54,74.2C44.4,79.8,35.9,87.7,29.2,97.1z"/>
	</g>
	<path class="st1" d="M200.1,162.8c-2.1,46.2-60.7,103.1-94.3,103.1c-34.9,0-94.3-57-94.3-103.1v-115c0-7.1,3.7-13.8,9.8-17.5
		c39.5-23.9,133.5-26,170.2-0.5c5.5,3.8,8.7,10.1,8.7,16.8L200.1,162.8L200.1,162.8z"/>
	<polygon class="st2" points="105.8,321.6 59.6,254.3 105.8,270.8 152.1,254.3 	"/>
</g>
<g>
	<polygon class="st3" points="105.8,321.6 59.6,254.3 105.8,270.8 152.1,254.3 	"/>
</g>
<g>
	<path class="st4" d="M94.7,216.8c-3.8,0-7.2,0-10.9,0c0-3.7,0.1-7.3,0-10.9c-0.1-7.3-3.7-12.5-9.5-13.8
		c-6.8-1.6-13.5,4.4-13.8,12.5c-0.1,4,0,8,0,12.2c-2.7,0-5.1,0-7.7,0c0-14.5,0-28.8,0-43.3c35.6,0,71.2,0,107,0
		c0,14.4,0,28.8,0,43.3c-2.5,0-4.9,0-7.6,0c0-3.8,0-7.4,0-11c-0.1-7.8-4.8-13.7-11.3-14c-6.3-0.3-11.6,5.5-11.9,13.3
		c-0.2,3.8,0,7.6,0,11.7c-3.6,0-7.1,0-10.8,0c0-0.9-0.1-2-0.1-3c0-6.8,0.1-13.6-0.2-20.4c-0.2-5.8-3.6-10.2-8.4-11.8
		c-4.4-1.5-9.8,0.3-12.3,5c-1.4,2.6-2.1,6-2.3,9.1c-0.4,6-0.1,12.1-0.1,18.1C94.7,214.7,94.7,215.6,94.7,216.8z"/>
	<path class="st4" d="M168.2,229.4c0,2.7,0,5.1,0,7.6c0,2-0.9,3-2.6,3.1c-0.6,0-1.2,0-1.7,0c-46,18.9-62,31-117.2,0
		c-4.1,0-4.4-0.4-4.4-5c0-1.8,0-3.6,0-5.7C95.3,229.4,115,229.4,168.2,229.4z"/>
	<path class="st4" d="M136.7,117.4c-20.4,0-40.4,0-60.4,0c0.3-15.8,10.7-27.9,27.7-32.3c0-9.7,0-19.6,0-29.5c1.6,0,3,0,4.7,0
		c0,9.8,0,19.6,0,29.5C124.6,88.1,134,98.7,136.7,117.4z"/>
	<path class="st4" d="M180,161.4c0,1.6,0,3.2,0,5c-49.1,0-98.1,0-147.3,0c0-1.6,0-3.2,0-5C81.7,161.4,130.8,161.4,180,161.4z"/>
	<path class="st4" d="M32.9,228.4c0-1.6-0.3-9.1-0.3-10.9c49.1,0,98.1,0,147.3,0c0,1.6,0,9.1,0,10.9
		C130.9,228.4,82.1,228.4,32.9,228.4z"/>
	<path class="st4" d="M142.8,124.3c0,2.6,0,4.9,0,7.1c0,2.4-1,3.4-3.1,3.3c-6.7-0.1-13.4,0-20.1,0c-15.3,0-30.7,0-46,0
		c-3.3,0-3.8-0.5-3.8-4.3c0-2,0-4,0-6.2C94.2,124.3,118.3,124.3,142.8,124.3z"/>
	<path class="st4" d="M37.7,173.3c3.1,0,5.9,0,9,0c0,14.5,0,28.8,0,43.4c-2.9,0-5.9,0-9,0C37.7,202.4,37.7,188,37.7,173.3z"/>
	<path class="st4" d="M165.8,216.7c0-14.5,0-28.8,0-43.3c3,0,5.9,0,9.1,0c0,14.3,0,28.7,0,43.3C172,216.7,169,216.7,165.8,216.7z"/>
	<path class="st5" d="M113.3,217.4c-4.8,0-9.2,0-13.9,0c0-7.9-0.2-15.8,0.1-23.6c0.1-3.9,3.5-6.8,6.9-6.8c3.5,0,6.8,3.2,6.9,7.2
		C113.4,201.9,113.3,209.5,113.3,217.4z"/>
	<path class="st5" d="M79.1,217.4c-4.7,0-9.2,0-13.8,0c0-4.5-0.3-9,0.1-13.3c0.4-4.1,3.7-6.4,7.5-6.1c3.2,0.3,5.7,3.3,6.1,7.1
		c0.1,0.6,0.1,1.1,0.1,1.7C79.1,210.2,79.1,213.6,79.1,217.4z"/>
	<path class="st5" d="M147.5,217.1c-4.7,0-9.2,0-13.8,0c0-4.5-0.3-9,0.1-13.4c0.3-3.9,3.7-6.3,7.3-6.1c3.3,0.2,6.1,3.2,6.3,7.2
		C147.6,208.8,147.5,212.8,147.5,217.1z"/>
	<path class="st4" d="M76.1,141.7c3.1,0,6,0,9.1,0c0,4.4,0,8.6,0,13c-3.1,0-6,0-9.1,0C76.1,150.3,76.1,146.1,76.1,141.7z"/>
	<path class="st4" d="M136.5,154.7c-3.1,0-6,0-9.1,0c0-4.3,0-8.5,0-12.9c3,0,6,0,9.1,0C136.5,146,136.5,150.2,136.5,154.7z"/>
	<path class="st4" d="M110.8,141.7c0,4.4,0,8.6,0,13c-3,0-5.8,0-8.9,0c0-4.3,0-8.5,0-13C104.8,141.7,107.7,141.7,110.8,141.7z"/>
</g>
<polygon class="st3" points="148.9,64.2 114.5,72.1 114.6,56.1 "/>
</svg>
