<?xml version="1.0" encoding="utf-8"?>
<!-- Generator: Adobe Illustrator 23.0.2, SVG Export Plug-In . SVG Version: 6.00 Build 0)  -->
<svg version="1.1" id="Слой_1" xmlns="http://www.w3.org/2000/svg" xmlns:xlink="http://www.w3.org/1999/xlink" x="0px" y="0px"
	 viewBox="0 0 211.6 327.9" style="enable-background:new 0 0 211.6 327.9;" xml:space="preserve">
<style type="text/css">
	.st0{fill:#FFFFFF;stroke:#6B8C17;stroke-width:23;stroke-miterlimit:10;}
	.st1{display:none;fill:#FFFFFF;stroke:#6B8C17;stroke-width:23;stroke-miterlimit:10;}
	.st2{fill:#6B8C17;}
	.st3{display:none;}
	.st4{display:inline;fill:#683C11;}
	.st5{display:none;fill:#6B8C17;}
	.st6{fill:#6B8C17;stroke:#6B8C17;stroke-miterlimit:10;}
</style>
<g id="Щит_Спираль">
	<path class="st0" d="M200.4,162.8c-1.4,30.3-61.4,103.1-94.3,103.1c-34.9,0-94.3-72.9-94.3-103.1v-115c0-7.1,3.7-13.8,9.8-17.5
		c39.5-23.9,133.5-26,170.2-0.5c5.5,3.8,8.7,10.1,8.7,16.8L200.4,162.8L200.4,162.8z"/>
	<polygon class="st1" points="106.1,321.6 59.9,254.3 106.1,270.8 152.4,254.3 	"/>
</g>
<g>
	<polygon class="st2" points="105.8,321.6 59.6,254.3 105.8,270.8 152.1,254.3 	"/>
</g>
<path class="st2" d="M96.3,207.9c1.5,0,2.8,0,4.3,0c0,1.4,0,2.9,0,4.4c-1.4,0-2.8,0-4.3,0C96.3,210.9,96.3,209.5,96.3,207.9z"/>
<g class="st3">
	<path class="st4" d="M169.4,191.2L169.4,191.2c0-16.2,0-32.4,0-48.6c0-1.1,0.4-2.2,0.9-3.1c1.6-2.8,3.4-5.5,5-8.3
		c-0.2-0.2-0.3-0.4-0.3-0.4c-2.3,0.4-3.2-0.8-3.9-2.9c-5.6-14.9-11.4-29.6-17.2-44.5c-0.4-1-0.8-1.9-1.4-3.4c-0.6,1.4-1,2.3-1.4,3.3
		c-5.7,15-11.5,30-17.2,45c-0.6,1.7-1.4,2.8-3.3,2.4c-0.2,0-0.4,0-0.5,0s-0.2,0.1-0.5,0.3c1.6,2.4,3,4.9,4.7,7.2
		c1.2,1.7,1.7,3.4,1.6,5.4c-0.1,3.5-0.1,7,0,10.5c0,1.2-0.4,1.7-1.6,1.6c-4.4-0.1-8.8-0.1-13.1,0c-1.2,0-1.5-0.5-1.5-1.6
		c0-12.2,0-24.4,0-36.5c0-0.7,0.3-1.5,0.7-2.1c1.8-2.9,3.6-5.7,5.8-9.2c-4,1.1-4.2-1.6-5-3.7c-5.7-14.6-11.4-29.3-17.1-43.9
		c-0.3-0.8-0.7-1.6-1.2-2.8c-0.5,1.1-0.8,1.8-1.1,2.6c-5.7,14.8-11.5,29.6-17.2,44.4c-0.8,2-1.1,4.4-4.9,3.4
		c1.1,1.9,1.8,3.3,2.8,4.5c2.9,3.7,3.7,7.7,3.6,12.4C85.9,138.5,86,153.7,86,169c0,2.3,0,2.3-2.3,2.3c-4.1,0-8.3-0.1-12.4,0
		c-1.4,0-1.7-0.5-1.8-1.8c-0.4-4.1,0.4-7.8,3.1-11c1.2-1.5,2.1-3.2,3.1-4.8c-0.2-0.2-0.3-0.4-0.4-0.3c-2.6,0.4-3.4-1.2-4.2-3.3
		c-5.7-15-11.4-30-17.2-45c-0.3-0.7-0.6-1.4-1-2.5c-1.7,4.3-3.2,8.1-4.7,11.9c-4.8,12.4-9.7,24.8-14.3,37.2
		c-0.8,2.1-2.3,1.4-3.9,1.8c0.7,1.2,1.2,2.4,2,3.3c3.5,4.3,4.2,9.1,4.1,14.5c0,2.2-0.1,4.3-0.1,6.5v52.7
		c18.4,15.2,42,24.3,67.6,24.3c24.7,0,47.4-8.5,65.5-22.6v-41H169.4z M51.9,185c0,0.4-0.6,1-1,1c-2.3,0.1-4.6,0-7.1,0
		c0-5.1,0-10,0.1-14.9c0-0.4,0.7-1.1,1.1-1.1c1.9-0.1,3.9-0.1,5.8,0c0.4,0,1.1,0.7,1.1,1.1C52,175.8,52,180.4,51.9,185z M74.5,198
		c0,0.4-0.7,1.1-1.1,1.1c-1.9,0.1-3.9,0.1-5.8,0c-0.4,0-1.1-0.5-1.1-0.8c-0.1-5,0-10,0-15.2c2.6,0,4.9,0,7.2,0c0.3,0,0.8,0.6,0.8,1
		C74.5,188.8,74.5,193.4,74.5,198z M111,137.4c-1.8-0.1-3.5,0-5.3,0c-0.9,0-1.4-0.2-1.4-1.3c0-4.5,0-9.1,0.1-13.6
		c0-0.4,0.6-1.1,0.9-1.1c2.3-0.1,4.7-0.1,7.3-0.1c0,1.9,0,3.6,0,5.3c0,3.1,0,6.1,0,9.2C112.6,137,112.2,137.5,111,137.4z
		 M148.9,212.7c-1.8-0.1-3.7,0.1-5.5-0.1c-0.4,0-1.2-0.8-1.2-1.2c-0.1-4.5,0-9-0.1-13.5c0-1,0.4-1.4,1.4-1.4c1.8,0,3.7,0,5.5,0
		c1,0,1.4,0.4,1.3,1.4c0,2.2,0,4.5,0,6.7s0,4.4,0,6.6C150.3,212.4,149.9,212.8,148.9,212.7z M154.4,176.3c-0.4,0-1.1-0.7-1.1-1.1
		c-0.1-4.6-0.1-9.1,0-13.7c0-0.4,0.6-1.1,0.9-1.1c2.3-0.1,4.7-0.1,7.1-0.1c0,5.4,0,10.6,0,16C158.8,176.4,156.6,176.4,154.4,176.3z"
		/>
</g>
<rect x="64.5" y="237.6" class="st2" width="80.7" height="21.9"/>
<path class="st5" d="M115.9,301.6c-0.1-3.2-1.1-6.5-3-9.6c-2.1-3.6-5.7-6.4-9-9.2c-20.2-17.7,78.2-44.7,58-62.2
	c-1.3-1.1-2.1-3.1-2.1-4.9c-0.2-13.1-0.2-26.3-0.2-39.2c0-2.3,0-4.6,0-7.4c1.8,0,3.1,0,4.4,0c3.3,0,6.6-0.5,7.9-3.9
	c1.3-3.4-0.5-5.9-3.1-8.4L120.9,109c-3.1-3.1-6.2-6.2-9-9c-3.3-3.3-8.7-3.3-12-0.2l-9.5,9.2c-10.5,10.8-21.2,21.3-31.7,32
	c-5.6,5.6-11,11-16.4,16.4c-2.1,2.1-3,4.8-1.8,7.4c1,2.8,3.3,3.9,6.2,3.9c2,0,3.9,0.3,5.7,0.5c0.2,0.5,0.3,1,0.3,1.3
	c0,15.4,0,31,0,46.3c0,1-0.7,2.3-1.5,3.1c-12.3,10.8,30,18.3,17.7,28.9c-9.8,8.5,20.7,9.9,11.2,18.6c-4.6,4.2,8.9,8.9,8.8,14.5
	L115.9,301.6z M89.5,185.7c0.5-7.9,8-13.8,16.1-13.9c8-0.2,15.3,5.6,16.2,13.3c0.8,5.7,0.7,11.6,1.1,17.2c0,0-0.1,0-0.2,0
	c0,4.1,0,8.4,0,12.6c0,4.8-1.3,6.4-5.9,6.4c-7.4,0-14.8,0-22.3,0c-3.4,0-5.6-1.5-5.6-4.9C89,206.3,88.7,195.9,89.5,185.7z"/>
<g>
	<path class="st6" d="M41.6,171c1.8-7.4,3.6-14.4,5.3-21.5c2.3-9.1,4.6-18.1,6.8-27.2c0.3-1.4,0.7-2.1,2.4-2.1c24.5,0.1,49,0,73.5,0
		c0.3,0,0.6,0,1.2,0.1c0,2.6,0,5.2,0,7.7c0,3.1,0.6,3.7,3.6,3.7c4.5,0,9.1,0,13.6,0c3,0,3.6-0.6,3.6-3.7c0-2.5,0-5,0-7.5
		c0.3-0.2,0.4-0.3,0.6-0.3c4.4-0.2,4.5-0.2,5.5,4c3.8,14.8,7.5,29.7,11.2,44.6c0.1,0.6,0.2,1.2,0.4,2c-0.7,0-1.4,0.1-2.1,0.1
		c-7.5,0-15.1,0-22.6,0c-1.1,0-2.3,0.2-2.8-1.3c-0.2-0.5-0.9-0.8-1.4-1.1c-11-6.6-22-13.2-32.9-19.8c-1.4-0.9-2.6-0.9-4,0
		c-11,6.6-21.9,13.2-32.9,19.8c-0.2,0.1-0.5,0.2-0.6,0.4c-1.5,2.8-4.2,2.1-6.6,2.1C56.2,171,49,171,41.6,171z"/>
	<path class="st6" d="M91.6,226.2c-3.2,0-6.1,0-9.1,0c0-0.8-0.1-1.4-0.1-2.1c0-15.4,0-30.7,0-46.1c0-1.5,0.4-2.3,1.7-3.1
		c6.7-3.9,13.3-7.9,19.9-12c1-0.6,1.8-0.7,2.9,0c6.7,4.1,13.5,8.1,20.3,12.3c0.6,0.4,1.3,1.4,1.3,2.1c0.1,16,0.1,32.1,0,48.1
		c0,0.2-0.1,0.4-0.2,0.7c-2.9,0-5.8,0-9,0c0-0.8,0-1.6,0-2.4c0-10.2,0-20.4,0-30.6c0-3.1-0.6-3.7-3.8-3.7c-6.8,0-13.7,0-20.5,0
		c-2.7,0-3.4,0.7-3.4,3.4c0,10.2,0,20.4,0,30.6C91.6,224.3,91.6,225.1,91.6,226.2z"/>
	<path class="st6" d="M167.9,231c0,2.3,0,4.4,0,6.6c-39.9,0-79.7,0-119.6,0c0-2.2,0-4.3,0-6.6C88.1,231,127.9,231,167.9,231z"/>
	<path class="st2" d="M96.3,194.1c6.1,0,12.1,0,18.2,0c0,10.6,0,21.3,0,32c-6,0-12,0-18.1,0C96.4,223.3,96.3,197.2,96.3,194.1z"/>
	<path class="st6" d="M50.2,198.4c0-3,0-5.9,0-8.9c9.1,0,18.2,0,27.4,0c0,2.9,0,5.8,0,8.9C68.6,198.4,59.5,198.4,50.2,198.4z"/>
	<path class="st6" d="M160.6,189.6c0,3,0,5.9,0,8.9c-9.2,0-18.2,0-27.5,0c0-3,0-5.8,0-8.9C142.2,189.6,151.3,189.6,160.6,189.6z"/>
	<path class="st6" d="M77.7,203.4c0,3,0,5.9,0,8.9c-9.1,0-18.2,0-27.4,0c0-2.9,0-5.8,0-8.9C59.3,203.4,68.4,203.4,77.7,203.4z"/>
	<path class="st6" d="M160.6,212.3c-9.1,0-18.2,0-27.4,0c0-2.9,0-5.9,0-9c9.1,0,18.2,0,27.4,0C160.6,206.3,160.6,209.2,160.6,212.3z
		"/>
	<path class="st6" d="M50.1,226.1c0-3.1,0-5.9,0-8.9c9.1,0,18.2,0,27.5,0c0,2.9,0,5.8,0,8.9C68.5,226.1,59.4,226.1,50.1,226.1z"/>
	<path class="st6" d="M160.6,226.2c-9.1,0-18.2,0-27.4,0c0-2.9,0-5.9,0-9c9.1,0,18.2,0,27.4,0C160.6,220.1,160.6,223,160.6,226.2z"
		/>
	<path class="st2" d="M137.4,171.1c-3.2-1.9-6.3-3.8-9.4-5.6c-6.8-4.1-13.7-8.2-20.5-12.3c-1.5-0.9-2.7-0.9-4.2,0
		c-9.2,5.6-18.5,11.1-27.8,16.7c-0.6,0.4-1.3,0.7-2,1.1c-16.3,1.5-0.7-3.3,2-5c9.3-5.6,18.7-11.2,28-16.8c1.4-0.9,2.4-0.9,3.9,0
		c9.2,5.6,18.5,11.2,27.8,16.7C137.3,167.1,159.3,172.6,137.4,171.1z"/>
	<path class="st6" d="M135.5,108.8c3.8,0,7.4,0,11.2,0c0,6.1,0,12.1,0,18.2c-3.7,0-7.4,0-11.2,0C135.5,121.1,135.5,115,135.5,108.8z
		"/>
	<path class="st6" d="M133.2,184.6c0-1.9,0-3.7,0-5.8c1.8,1.1,3.4,2.1,5.1,3c2.3,1.3,3.9,0.4,4-2.2c0-1.2,0-2.4,0-3.8
		c6.1,0,12.1,0,18.3,0c0,2.9,0,5.8,0,8.9C151.5,184.6,142.4,184.6,133.2,184.6z"/>
	<path class="st6" d="M77.7,178.8c0,2.2,0,3.9,0,5.9c-9.1,0-18.2,0-27.4,0c0-2.9,0-5.9,0-9c6,0,12,0,18.3,0c0,1.3,0,2.6,0,3.9
		c0.1,2.6,1.7,3.5,4,2.2c0.8-0.4,1.6-1,2.4-1.4C75.7,179.9,76.5,179.5,77.7,178.8z"/>
</g>
<path class="st2" d="M141.1,98.6c-4.4-0.5-2.2-5.5-9.9-13.6c-6.2-6.5-12-4.2-35.7-11.1C77.6,68.7,74,65.4,72.7,61.6
	c-2.3-6.2,1.7-12.9,2.3-14c0.9-1.6,5.5-8.9,12.9-9.4c9.8-0.6,17.1,11.2,18.1,12.9c3.9,6.3,2.7,9.6,7,12.9c3.8,2.9,6,1.2,12.9,4.1
	c4.5,1.9,7.3,4.1,12.3,8.2c7.3,6,6.2,9.1,6.9,13C146.4,96.4,145.2,99.1,141.1,98.6z"/>
</svg>
